<svg xmlns="http://www.w3.org/2000/svg" viewBox="0 0 270.42 71.86"><defs><style>.cls-1{fill:#1a458b;}.cls-2{fill:#fff;}.cls-3{fill:#a57f2d;}.cls-4,.cls-5{fill:#f8c235;}.cls-5{opacity:0.99;}</style></defs><g id="Layer_1" data-name="Layer 1"><path class="cls-1" d="M93.5,27.85a3.53,3.53,0,0,1-.35,1.56,3.64,3.64,0,0,1-1,1.24,4.16,4.16,0,0,1-1.44.77A4.3,4.3,0,0,1,89,31.6,6.08,6.08,0,0,1,87,31a8,8,0,0,1-2.06-1.46,2.53,2.53,0,0,1-.22.89,2.09,2.09,0,0,1-.46.62,1.92,1.92,0,0,1-.61.37,2.67,2.67,0,0,1-.68.15,3.08,3.08,0,0,1-.68,0,2.32,2.32,0,0,1-.58-.19l-.37-1.72a.67.67,0,0,0,.37,0,.75.75,0,0,0,.35-.16.93.93,0,0,0,.27-.34,1.22,1.22,0,0,0,.1-.49l0-8.08a1.1,1.1,0,0,0-.11-.49.76.76,0,0,0-.26-.34.66.66,0,0,0-.35-.16.67.67,0,0,0-.37.05L81.74,18a1.82,1.82,0,0,1,.48-.15,2.9,2.9,0,0,1,.67-.05,2.74,2.74,0,0,1,.74.13,1.68,1.68,0,0,1,.66.4,2,2,0,0,1,.49.75A3.16,3.16,0,0,1,85,20.26l0,7.11a8.79,8.79,0,0,0,1.67,1.38,5.06,5.06,0,0,0,1.45.66,3.06,3.06,0,0,0,1.22.08,2.46,2.46,0,0,0,.92-.36,1.83,1.83,0,0,0,.59-.65,1.71,1.71,0,0,0,.2-.78V18H93.5Z"/><path class="cls-1" d="M108.21,18a5.63,5.63,0,0,1-.07,1.18,3.9,3.9,0,0,1-.35,1.08,5.27,5.27,0,0,1-.69,1,8,8,0,0,1-1.07,1,2.63,2.63,0,0,1,.8.47,3.63,3.63,0,0,1,.64.76,4,4,0,0,1,.43.94,3.82,3.82,0,0,1,.15,1.06v5.93h-2.51V25.31a3.14,3.14,0,0,0-.08-.67,2.18,2.18,0,0,0-.25-.63,2,2,0,0,0-.43-.52,1.67,1.67,0,0,0-.63-.3,4.89,4.89,0,0,1-.64.28c-.25.09-.52.18-.8.26l-.87.25-.87.21-.81.17-.67.1v6.93H97V20.65a1.1,1.1,0,0,0-.1-.49.93.93,0,0,0-.26-.34.73.73,0,0,0-.36-.16.57.57,0,0,0-.36.06L96.26,18a1.91,1.91,0,0,1,.49-.15,2.85,2.85,0,0,1,.67-.05,2.74,2.74,0,0,1,.73.13,1.79,1.79,0,0,1,.67.4,2,2,0,0,1,.48.75,3.16,3.16,0,0,1,.19,1.19v2.39a17.8,17.8,0,0,0,2.9-.78,7.08,7.08,0,0,0,1.91-1,3.57,3.57,0,0,0,1.07-1.29A3.63,3.63,0,0,0,105.7,18Z"/><path class="cls-1" d="M115,31.39V21.68a2.71,2.71,0,0,0-.22-1.13,1.43,1.43,0,0,0-.77-.72,3,3,0,0,0-1.46-.17,9.44,9.44,0,0,0-2.29.53l-.46-1.57a11,11,0,0,1,1.76-.57,8.48,8.48,0,0,1,1.76-.25,6.57,6.57,0,0,1,1.62.13,3.61,3.61,0,0,1,1.33.56,2.87,2.87,0,0,1,.91,1,3.41,3.41,0,0,1,.33,1.57V31.39Z"/><path class="cls-1" d="M130.47,24.88a7.56,7.56,0,0,1-.29,2.13,6.39,6.39,0,0,1-.77,1.74,5.89,5.89,0,0,1-1.19,1.34,6,6,0,0,1-1.48.92,7,7,0,0,1-1.71.48,6.52,6.52,0,0,1-1.82,0,7.83,7.83,0,0,1-1.85-.46,8,8,0,0,1-1.78-1l1-1.76a6.08,6.08,0,0,0,1.75.87,4.85,4.85,0,0,0,1.7.2A4,4,0,0,0,125.6,29a3.75,3.75,0,0,0,1.24-.92,4.3,4.3,0,0,0,.84-1.41,5.3,5.3,0,0,0,.3-1.82,6.1,6.1,0,0,0-.35-2.21,4.46,4.46,0,0,0-.94-1.53,3.66,3.66,0,0,0-1.35-.89,4.32,4.32,0,0,0-1.59-.3,5.25,5.25,0,0,0-1.65.25,5.34,5.34,0,0,0-1.52.78l-.94-1.61a9.18,9.18,0,0,1,1.79-1,7.84,7.84,0,0,1,1.84-.49,6.86,6.86,0,0,1,1.81,0,6.47,6.47,0,0,1,1.7.46,6,6,0,0,1,1.47.94,5.75,5.75,0,0,1,1.17,1.41,7.41,7.41,0,0,1,.77,1.88,9.5,9.5,0,0,1,.28,2.34"/><path class="cls-1" d="M130.07,15.69c-.58-.09-1.18-.18-1.82-.25s-1.29-.13-2-.17-1.34-.06-2-.07-1.34,0-2,0-1.29.09-1.9.16-1.2.17-1.73.29l-.15-1.94c.58-.11,1.19-.22,1.84-.3s1.3-.15,2-.2,1.36-.07,2-.07,1.38,0,2.05.05,1.33.1,2,.19,1.25.2,1.83.33Z"/><path class="cls-1" d="M142.11,31.39V21.68a1.86,1.86,0,0,0-.18-.79,1.84,1.84,0,0,0-.55-.66,2,2,0,0,0-.87-.35,2.6,2.6,0,0,0-1.2.13,5.59,5.59,0,0,0-1.49.77,11.5,11.5,0,0,0-1.76,1.59v9h-2.51V20.65a1.1,1.1,0,0,0-.1-.49.93.93,0,0,0-.26-.34.74.74,0,0,0-.35-.16.66.66,0,0,0-.37.05l.36-1.72a1.91,1.91,0,0,1,.49-.15,2.85,2.85,0,0,1,.67-.05,2.74,2.74,0,0,1,.73.13,1.71,1.71,0,0,1,.67.4,2.17,2.17,0,0,1,.49.75,3.39,3.39,0,0,1,.18,1.19,8.17,8.17,0,0,1,2-1.65,6,6,0,0,1,2-.73,4.29,4.29,0,0,1,1.79,0,4,4,0,0,1,1.45.67,3.41,3.41,0,0,1,1,1.15,3.18,3.18,0,0,1,.36,1.49V31.39Z"/><path class="cls-1" d="M158.87,27a4,4,0,0,1-.31,1.62,4.11,4.11,0,0,1-.87,1.26,4.65,4.65,0,0,1-1.26.92,6.76,6.76,0,0,1-1.54.57,7.89,7.89,0,0,1-3.35.06,6.63,6.63,0,0,1-1.54-.51,4.52,4.52,0,0,1-1.26-.88,3.77,3.77,0,0,1-1.18-2.85,4.33,4.33,0,0,1,.16-1.26,3.05,3.05,0,0,1,.46-.94,2.35,2.35,0,0,1,.68-.62,2.51,2.51,0,0,1,.85-.33v-.15a2.34,2.34,0,0,1-.84-.3,2.18,2.18,0,0,1-.66-.59,2.75,2.75,0,0,1-.44-.91,4.73,4.73,0,0,1-.15-1.26,3,3,0,0,1,.24-1.19,2.77,2.77,0,0,1,.7-1,3.46,3.46,0,0,1,1.13-.65,4.47,4.47,0,0,1,1.53-.24,2.45,2.45,0,0,1,.58.08,2,2,0,0,1,.51.19l.33,1.64a3.44,3.44,0,0,0-.79,0,2.05,2.05,0,0,0-.78.21,1.55,1.55,0,0,0-.58.53,1.67,1.67,0,0,0-.24,1,2,2,0,0,0,.15.73,1.64,1.64,0,0,0,.42.53,2.26,2.26,0,0,0,.69.38,5.3,5.3,0,0,0,1,.23l.15,1.1a3.57,3.57,0,0,0-1,.41,3.15,3.15,0,0,0-.74.59,2.54,2.54,0,0,0-.44.74,2.2,2.2,0,0,0-.13.8,2.63,2.63,0,0,0,.27,1.21,2.7,2.7,0,0,0,.68.88,3.41,3.41,0,0,0,1,.54,3.94,3.94,0,0,0,1.12.2,3.84,3.84,0,0,0,1.12-.16,2.75,2.75,0,0,0,1-.52,2.7,2.7,0,0,0,.69-.9,3,3,0,0,0,.26-1.28V18h2.51Z"/><path class="cls-1" d="M165.77,31.39V21.68a2.71,2.71,0,0,0-.22-1.13,1.43,1.43,0,0,0-.77-.72,3,3,0,0,0-1.46-.17,9.51,9.51,0,0,0-2.3.53l-.45-1.57a11,11,0,0,1,1.76-.57,8.48,8.48,0,0,1,1.76-.25,6.57,6.57,0,0,1,1.62.13,3.61,3.61,0,0,1,1.33.56,2.87,2.87,0,0,1,.91,1,3.41,3.41,0,0,1,.33,1.57V31.39Z"/><path class="cls-1" d="M180.32,31.39V24.8a16.78,16.78,0,0,0-2.73.09,6.19,6.19,0,0,0-2,.52,2.6,2.6,0,0,0-1.16,1,2.37,2.37,0,0,0-.28,1.48,1.56,1.56,0,0,0,.2.63,1.34,1.34,0,0,0,.39.43,1.66,1.66,0,0,0,.53.27,2.32,2.32,0,0,0,.58.13,2.63,2.63,0,0,0,.56,0,2.28,2.28,0,0,0,.49-.08l-.39,2a3,3,0,0,1-1.1.28,3.58,3.58,0,0,1-1.13-.1,3.78,3.78,0,0,1-2.59-2.27,3.67,3.67,0,0,1-.26-1.3,4.46,4.46,0,0,1,.26-1.81,3.64,3.64,0,0,1,.88-1.32,4.61,4.61,0,0,1,1.41-.9,9.25,9.25,0,0,1,1.82-.54,14.21,14.21,0,0,1,2.15-.22c.76,0,1.55,0,2.37,0l0-.27a3.09,3.09,0,0,0-.32-1.55,2.54,2.54,0,0,0-1-1,3.68,3.68,0,0,0-1.47-.45,6.67,6.67,0,0,0-1.82.07,10.58,10.58,0,0,0-2,.54,13.84,13.84,0,0,0-2.11,1l-.46-2a12.41,12.41,0,0,1,2.72-1.17,11.42,11.42,0,0,1,2.68-.49A8.46,8.46,0,0,1,179,18a5.72,5.72,0,0,1,2,.84,4.15,4.15,0,0,1,1.84,3.56v9Z"/><path class="cls-1" d="M186,13.39a5.63,5.63,0,0,1-.91.66,9.65,9.65,0,0,1-1.16.58,13.48,13.48,0,0,1-1.31.46,11.51,11.51,0,0,1-1.38.33,10.57,10.57,0,0,1-1.34.15,6.74,6.74,0,0,1-1.22-.07,3.74,3.74,0,0,1-1-.32,1.75,1.75,0,0,1-.68-.61,1.89,1.89,0,0,1-.29-.93,3.33,3.33,0,0,1,.22-1.27l2.45-.49a1.39,1.39,0,0,0-.07.76.85.85,0,0,0,.33.49,1.56,1.56,0,0,0,.66.23,4.5,4.5,0,0,0,.9,0,7.23,7.23,0,0,0,1-.17,9.77,9.77,0,0,0,1.1-.33,11,11,0,0,0,1.07-.45,8.62,8.62,0,0,0,1-.53Z"/><path class="cls-1" d="M197.53,27a4,4,0,0,1-.31,1.62,4.11,4.11,0,0,1-.87,1.26,4.65,4.65,0,0,1-1.26.92,6.76,6.76,0,0,1-1.54.57,7.89,7.89,0,0,1-3.35.06,6.79,6.79,0,0,1-1.54-.51A4.52,4.52,0,0,1,187.4,30a3.87,3.87,0,0,1-1.18-2.85,4.33,4.33,0,0,1,.16-1.26,3.05,3.05,0,0,1,.46-.94,2.35,2.35,0,0,1,.68-.62,2.51,2.51,0,0,1,.85-.33v-.15a2.34,2.34,0,0,1-.84-.3,2.3,2.3,0,0,1-.66-.59,3,3,0,0,1-.44-.91,4.73,4.73,0,0,1-.15-1.26,3,3,0,0,1,.24-1.19,2.77,2.77,0,0,1,.7-1,3.46,3.46,0,0,1,1.13-.65,4.51,4.51,0,0,1,1.53-.24,2.45,2.45,0,0,1,.58.08,2,2,0,0,1,.51.19l.33,1.64a3.44,3.44,0,0,0-.79,0,2.05,2.05,0,0,0-.78.21,1.55,1.55,0,0,0-.58.53,1.67,1.67,0,0,0-.24,1,1.82,1.82,0,0,0,.16.73,1.49,1.49,0,0,0,.41.53,2.38,2.38,0,0,0,.69.38,5.3,5.3,0,0,0,1,.23l.15,1.1a3.57,3.57,0,0,0-1,.41,2.9,2.9,0,0,0-.73.59,2.17,2.17,0,0,0-.44.74,2,2,0,0,0-.14.8,2.63,2.63,0,0,0,.27,1.21,2.7,2.7,0,0,0,.68.88,3.41,3.41,0,0,0,1,.54,3.94,3.94,0,0,0,1.12.2,3.84,3.84,0,0,0,1.12-.16,2.75,2.75,0,0,0,1-.52,2.7,2.7,0,0,0,.69-.9,3,3,0,0,0,.26-1.28V18h2.51Z"/><path class="cls-1" d="M212.08,27.85a3.59,3.59,0,0,1-1.3,2.8,4.11,4.11,0,0,1-1.43.77,4.35,4.35,0,0,1-1.78.18,6,6,0,0,1-2-.57,8.2,8.2,0,0,1-2.07-1.46,2.16,2.16,0,0,1-.22.89,2.06,2.06,0,0,1-.45.62,2,2,0,0,1-.61.37,2.85,2.85,0,0,1-.69.15,3,3,0,0,1-.67,0,2.4,2.4,0,0,1-.59-.19l-.36-1.72a.67.67,0,0,0,.37,0,.8.8,0,0,0,.35-.16,1,1,0,0,0,.26-.34,1.07,1.07,0,0,0,.1-.49l0-8.08a1.1,1.1,0,0,0-.1-.49.93.93,0,0,0-.26-.34.7.7,0,0,0-.35-.16.67.67,0,0,0-.37.05l.36-1.72a1.91,1.91,0,0,1,.49-.15,2.85,2.85,0,0,1,.67-.05,2.74,2.74,0,0,1,.73.13,1.71,1.71,0,0,1,.67.4,2.17,2.17,0,0,1,.49.75,3.39,3.39,0,0,1,.18,1.19l0,7.11a9.11,9.11,0,0,0,1.67,1.38,5,5,0,0,0,1.46.66,3,3,0,0,0,1.21.08,2.51,2.51,0,0,0,.93-.36,1.89,1.89,0,0,0,.58-.65,1.59,1.59,0,0,0,.2-.78V18h2.51Z"/><path class="cls-1" d="M226.79,18a5.66,5.66,0,0,1-.06,1.18,4.29,4.29,0,0,1-.36,1.08,4.48,4.48,0,0,1-.69,1,7.42,7.42,0,0,1-1.07,1,2.51,2.51,0,0,1,.8.47,3.75,3.75,0,0,1,1.07,1.7,3.49,3.49,0,0,1,.16,1.06v5.93h-2.51V25.31a3.14,3.14,0,0,0-.08-.67,2.2,2.2,0,0,0-.26-.63,1.78,1.78,0,0,0-.43-.52,1.56,1.56,0,0,0-.62-.3,4.52,4.52,0,0,1-.65.28c-.25.09-.51.18-.79.26l-.87.25-.87.21-.81.17-.67.1v6.93h-2.51V20.65a1.1,1.1,0,0,0-.11-.49.83.83,0,0,0-.26-.34.66.66,0,0,0-.35-.16.6.6,0,0,0-.37.06l.36-1.73a1.91,1.91,0,0,1,.49-.15,2.9,2.9,0,0,1,.67-.05,2.67,2.67,0,0,1,.73.13,1.71,1.71,0,0,1,.67.4,2.17,2.17,0,0,1,.49.75,3.16,3.16,0,0,1,.19,1.19v2.39a17.38,17.38,0,0,0,2.89-.78,7.16,7.16,0,0,0,1.92-1A3.54,3.54,0,0,0,224,19.55a3.63,3.63,0,0,0,.33-1.56Z"/><path class="cls-1" d="M227.09,15.69c-.58-.09-1.18-.18-1.82-.25s-1.29-.13-2-.17-1.34-.06-2-.07-1.34,0-2,0-1.29.09-1.9.16-1.19.17-1.73.29l-.15-1.94c.58-.11,1.19-.22,1.84-.3s1.3-.15,2-.2,1.37-.07,2.05-.07,1.38,0,2,.05,1.33.1,2,.19,1.25.2,1.83.33Z"/><path class="cls-1" d="M240.1,31.39v-8.5a3.1,3.1,0,0,0-.27-1.31,2.85,2.85,0,0,0-.76-1,3.53,3.53,0,0,0-1.16-.65,4.77,4.77,0,0,0-1.5-.22,4,4,0,0,0-3.26,1.52,4.77,4.77,0,0,0-.82,1.64,5.86,5.86,0,0,0-.21,2,6.51,6.51,0,0,0,.25,1.72,5.47,5.47,0,0,0,.53,1.23,3.37,3.37,0,0,0,.64.79,3,3,0,0,0,.6.4l1.21-3.78a.84.84,0,0,0,0-.49.75.75,0,0,0-.22-.34.85.85,0,0,0-.37-.18,1.3,1.3,0,0,0-.44,0l.61-1.79a2.93,2.93,0,0,1,.83-.06,2.78,2.78,0,0,1,.78.17,2.58,2.58,0,0,1,.64.38,2.09,2.09,0,0,1,.47.56,1.82,1.82,0,0,1,.23.69,1.86,1.86,0,0,1-.08.8l-2,6.48a4,4,0,0,1-1.59.15,4.17,4.17,0,0,1-1.46-.47,5.24,5.24,0,0,1-1.25-1,6.66,6.66,0,0,1-1-1.42,8.63,8.63,0,0,1-.65-1.77,9.37,9.37,0,0,1-.27-2A7.75,7.75,0,0,1,230,22a6.51,6.51,0,0,1,1.34-2.25,6.09,6.09,0,0,1,2.16-1.47,7.42,7.42,0,0,1,2.85-.52,8.24,8.24,0,0,1,1.84.2,7,7,0,0,1,1.54.55,6,6,0,0,1,1.22.84,5.84,5.84,0,0,1,.9,1,5.12,5.12,0,0,1,.55,1.19,4.57,4.57,0,0,1,.18,1.26v8.53Z"/><path class="cls-1" d="M254.65,31.39V24.8a16.78,16.78,0,0,0-2.73.09,6.26,6.26,0,0,0-2,.52,2.58,2.58,0,0,0-1.15,1,2.37,2.37,0,0,0-.29,1.48,1.56,1.56,0,0,0,.2.63,1.5,1.5,0,0,0,.4.43,1.61,1.61,0,0,0,.52.27,2.32,2.32,0,0,0,.58.13,2.63,2.63,0,0,0,.56,0,2.18,2.18,0,0,0,.49-.08l-.39,2a3,3,0,0,1-1.1.28,3.52,3.52,0,0,1-1.12-.1,4,4,0,0,1-1.07-.45,3.91,3.91,0,0,1-.9-.77,4,4,0,0,1-.63-1.05,3.67,3.67,0,0,1-.26-1.3,4.46,4.46,0,0,1,.26-1.81,3.67,3.67,0,0,1,.89-1.32,4.44,4.44,0,0,1,1.4-.9,9.36,9.36,0,0,1,1.83-.54,14.07,14.07,0,0,1,2.14-.22c.76,0,1.55,0,2.37,0l0-.27a3,3,0,0,0-.32-1.55,2.54,2.54,0,0,0-1-1,3.63,3.63,0,0,0-1.46-.45,6.65,6.65,0,0,0-1.82.07,10.67,10.67,0,0,0-2,.54,14.31,14.31,0,0,0-2.11,1l-.45-2a12.34,12.34,0,0,1,2.71-1.17,11.51,11.51,0,0,1,2.68-.49,8.43,8.43,0,0,1,2.44.19,5.64,5.64,0,0,1,2,.84,4.09,4.09,0,0,1,1.84,3.56v9Z"/><path class="cls-1" d="M89.38,44.34a1.56,1.56,0,0,1,0,.4,2.69,2.69,0,0,1-.16.45,2.55,2.55,0,0,1-.23.43,1.69,1.69,0,0,1-.27.36,2.53,2.53,0,0,1,.49.9A3.78,3.78,0,0,1,89.32,48V54h-1.7V49.48a12.11,12.11,0,0,0-1.88.07,4.48,4.48,0,0,0-1.32.35,1.59,1.59,0,0,0-1,1.67.9.9,0,0,0,.12.41,1.2,1.2,0,0,0,.26.29,1.37,1.37,0,0,0,.36.19,1.8,1.8,0,0,0,.4.1,1.7,1.7,0,0,0,.39,0,1.67,1.67,0,0,0,.34,0l-.27,1.35a2.24,2.24,0,0,1-.76.19,2.49,2.49,0,0,1-.77-.08,2.39,2.39,0,0,1-.71-.32,2.56,2.56,0,0,1-.61-.53,2.77,2.77,0,0,1-.42-.71,2.61,2.61,0,0,1-.17-.89,3,3,0,0,1,.19-1.24,2.39,2.39,0,0,1,.64-.89,3.3,3.3,0,0,1,1-.6,6.73,6.73,0,0,1,1.25-.34,10.66,10.66,0,0,1,1.43-.14c.5,0,1,0,1.51,0v-.16a2.09,2.09,0,0,0-.25-1.07,1.66,1.66,0,0,0-.68-.66,2.65,2.65,0,0,0-1-.3,4.77,4.77,0,0,0-1.24,0,7.23,7.23,0,0,0-1.35.38,8.32,8.32,0,0,0-1.37.68l-.31-1.38a8,8,0,0,1,1.06-.52,8.94,8.94,0,0,1,1.1-.38,10.16,10.16,0,0,1,1.1-.21,7.77,7.77,0,0,1,1.07,0,6.47,6.47,0,0,1,1,.14,3.62,3.62,0,0,1,.89.32,1.75,1.75,0,0,0,.16-.27c0-.1.09-.21.13-.31a2.14,2.14,0,0,0,.08-.32A1,1,0,0,0,88,44Z"/><path class="cls-1" d="M97.46,54V47.76a1.55,1.55,0,0,0-.14-.65,1.92,1.92,0,0,0-.39-.51,1.8,1.8,0,0,0-.56-.36,2.55,2.55,0,0,0-.68-.2A2.61,2.61,0,0,0,95,46a2.64,2.64,0,0,0-.74.16,2.52,2.52,0,0,0-.67.35,2.48,2.48,0,0,0-.55.57,1.28,1.28,0,0,1,.26.26,1.53,1.53,0,0,1,.14.29,1.68,1.68,0,0,1,.06.27,1.42,1.42,0,0,1,0,.19v4.06a.67.67,0,0,0,.07.33.71.71,0,0,0,.18.23.53.53,0,0,0,.24.11.44.44,0,0,0,.25,0L94,54a1.75,1.75,0,0,1-.34.1,1.79,1.79,0,0,1-1,0,1.29,1.29,0,0,1-.45-.27,1.33,1.33,0,0,1-.33-.51,2.08,2.08,0,0,1-.13-.81V48.68a5.2,5.2,0,0,0-.05-.77,2.34,2.34,0,0,0-.12-.49,1.51,1.51,0,0,0-.2-.31l-.27-.25a3.57,3.57,0,0,1,.87-1,4.59,4.59,0,0,1,1.15-.68,5.83,5.83,0,0,1,1.32-.35,6.2,6.2,0,0,1,1.36,0,5.73,5.73,0,0,1,1.27.28,4.18,4.18,0,0,1,1.07.57,2.62,2.62,0,0,1,.73.86,2.29,2.29,0,0,1,.27,1.12V54Z"/><path class="cls-1" d="M103.84,54V47.37a1.67,1.67,0,0,0-.16-.76,1,1,0,0,0-.52-.5,2.19,2.19,0,0,0-1-.11,6.5,6.5,0,0,0-1.56.36l-.31-1.06a6.62,6.62,0,0,1,1.19-.39,5.69,5.69,0,0,1,1.2-.17,3.89,3.89,0,0,1,1.09.09,2.56,2.56,0,0,1,.91.37,1.91,1.91,0,0,1,.61.71,2.32,2.32,0,0,1,.23,1.07v7Z"/><path class="cls-1" d="M115.4,51a2.72,2.72,0,0,1-.21,1.09,2.88,2.88,0,0,1-.57.85,3.26,3.26,0,0,1-.85.6,4.27,4.27,0,0,1-1,.37,5.15,5.15,0,0,1-2.21,0,4.41,4.41,0,0,1-1-.36,3.26,3.26,0,0,1-.85-.6,2.76,2.76,0,0,1-.57-.85,2.67,2.67,0,0,1-.21-1.08l0-4.39a.84.84,0,0,0-.06-.33.62.62,0,0,0-.18-.23.53.53,0,0,0-.24-.11.43.43,0,0,0-.25,0l.24-1.17a1.45,1.45,0,0,1,.33-.1,2.25,2.25,0,0,1,.46,0,2.29,2.29,0,0,1,.5.09,1.18,1.18,0,0,1,.45.27,1.61,1.61,0,0,1,.33.51,2.33,2.33,0,0,1,.13.81l0,4.57a1.73,1.73,0,0,0,.17.81,1.71,1.71,0,0,0,.47.59,1.92,1.92,0,0,0,.65.34,2.44,2.44,0,0,0,1.51,0,1.92,1.92,0,0,0,.65-.34,1.71,1.71,0,0,0,.47-.59,1.73,1.73,0,0,0,.18-.81V44.87h1.7Z"/><path class="cls-1" d="M117.55,41.75a3.55,3.55,0,0,1-.62.45,6.3,6.3,0,0,1-.78.39,7.77,7.77,0,0,1-.89.32c-.31.09-.62.16-.93.22a7.44,7.44,0,0,1-.91.1,4.36,4.36,0,0,1-.83,0,2.26,2.26,0,0,1-.68-.22,1.15,1.15,0,0,1-.46-.41,1.24,1.24,0,0,1-.2-.63,2.47,2.47,0,0,1,.15-.86l1.66-.33a.89.89,0,0,0,0,.52.57.57,0,0,0,.23.32.92.92,0,0,0,.44.16,3.1,3.1,0,0,0,.61,0,6.86,6.86,0,0,0,.71-.11c.24-.06.49-.14.74-.22a6.66,6.66,0,0,0,.73-.31,6.54,6.54,0,0,0,.65-.36Z"/><path class="cls-1" d="M126.06,54a1.12,1.12,0,0,1-.39.12,1.76,1.76,0,0,1-.46,0,1.89,1.89,0,0,1-.47-.11,1.27,1.27,0,0,1-.42-.25,1.19,1.19,0,0,1-.32-.41,1.56,1.56,0,0,1-.14-.6,5.68,5.68,0,0,1-1,.8,5.11,5.11,0,0,1-1,.45,3.74,3.74,0,0,1-1,.14,3.12,3.12,0,0,1-.88-.14,2.6,2.6,0,0,1-1.34-.91,2.49,2.49,0,0,1-.38-.7,2.38,2.38,0,0,1-.14-.81l0-4.88a.7.7,0,0,0-.07-.33.51.51,0,0,0-.17-.23.58.58,0,0,0-.24-.11.43.43,0,0,0-.25,0l.24-1.17a1.45,1.45,0,0,1,.33-.1,2.25,2.25,0,0,1,.46,0,2.29,2.29,0,0,1,.5.09,1.32,1.32,0,0,1,.45.27,1.61,1.61,0,0,1,.33.51,2.33,2.33,0,0,1,.13.81l0,5a1.12,1.12,0,0,0,.13.53,1.29,1.29,0,0,0,.4.44,1.49,1.49,0,0,0,.62.24,2,2,0,0,0,.83,0,3.84,3.84,0,0,0,1-.45,5.93,5.93,0,0,0,1.12-.94V44.87h1.71v7.28a.67.67,0,0,0,.07.33.55.55,0,0,0,.41.34.48.48,0,0,0,.26,0Z"/><path class="cls-1" d="M134.34,44.85a3.69,3.69,0,0,1-.12.83,3.42,3.42,0,0,1-.3.77,3.82,3.82,0,0,1-1,1.23,4.7,4.7,0,0,1,.51.49,2.91,2.91,0,0,1,.43.63,3,3,0,0,1,.3.8,4,4,0,0,1,.11,1,4.33,4.33,0,0,1-.13,1.13,3.27,3.27,0,0,1-.38.89,2.8,2.8,0,0,1-.57.66,3.28,3.28,0,0,1-.71.45,3.55,3.55,0,0,1-.8.25,4.19,4.19,0,0,1-.86.09,5.08,5.08,0,0,1-1.16-.13,3.31,3.31,0,0,1-.9-.35,2.43,2.43,0,0,1-.65-.53,2.58,2.58,0,0,1-.43-.66,3.31,3.31,0,0,1-.25-.75,5.29,5.29,0,0,1-.07-.8,3.46,3.46,0,0,1,.1-.89,4.2,4.2,0,0,1,.26-.71,5,5,0,0,1,.33-.61c.12-.18.23-.37.33-.55a3.53,3.53,0,0,0,.25-.57,1.93,1.93,0,0,0,.11-.65.83.83,0,0,0-.1-.38.66.66,0,0,0-.27-.3.88.88,0,0,0-.4-.15,1.09,1.09,0,0,0-.52.07l.16-1.11a2.06,2.06,0,0,1,.57-.23,3,3,0,0,1,.66-.08,2.37,2.37,0,0,1,.65.09,1.57,1.57,0,0,1,.56.29,1.33,1.33,0,0,1,.4.5,1.68,1.68,0,0,1,.15.74,3,3,0,0,1-.11.82,3.91,3.91,0,0,1-.27.7,7,7,0,0,1-.35.66c-.12.21-.24.44-.35.68a7.1,7.1,0,0,0-.27.78,4,4,0,0,0-.1,1,2.66,2.66,0,0,0,.12.84,1.76,1.76,0,0,0,.35.6,1.4,1.4,0,0,0,.53.35,1.81,1.81,0,0,0,.67.11,2.07,2.07,0,0,0,.66-.1,1.3,1.3,0,0,0,.56-.34,1.74,1.74,0,0,0,.39-.64,3.37,3.37,0,0,0,.14-1,3.31,3.31,0,0,0-.17-1.08,3.34,3.34,0,0,0-.4-.85,3.77,3.77,0,0,0-.51-.64c-.17-.17-.33-.31-.46-.42a5.6,5.6,0,0,0,.63-.66,4,4,0,0,0,.48-.76,3.54,3.54,0,0,0,.31-.82,3.28,3.28,0,0,0,.12-.88Z"/><path class="cls-1" d="M134.09,43.27c-.63-.1-1.27-.17-1.94-.22s-1.32-.08-2-.08-1.3,0-1.94.08a16.23,16.23,0,0,0-1.8.26l-.1-1.31a14.4,14.4,0,0,1,1.44-.24c.51-.07,1-.11,1.57-.14s1.07,0,1.61,0a15.45,15.45,0,0,1,1.55.12V40.36h1.59Z"/><path class="cls-1" d="M142.91,49.54a5.07,5.07,0,0,1-.19,1.44,4.38,4.38,0,0,1-.53,1.18,3.88,3.88,0,0,1-.8.91,4,4,0,0,1-1,.62,4.47,4.47,0,0,1-1.15.33A4.68,4.68,0,0,1,138,54a5.23,5.23,0,0,1-1.25-.32,5.31,5.31,0,0,1-1.21-.66l.7-1.19a4,4,0,0,0,1.19.58,3.08,3.08,0,0,0,1.15.14,2.8,2.8,0,0,0,1-.26,2.62,2.62,0,0,0,.85-.63,3.06,3.06,0,0,0,.56-.95,3.47,3.47,0,0,0,.21-1.24A4.16,4.16,0,0,0,141,48a2.91,2.91,0,0,0-.64-1,2.53,2.53,0,0,0-.92-.6,3,3,0,0,0-1.07-.21,3.64,3.64,0,0,0-1.12.18,3.33,3.33,0,0,0-1,.52l-.64-1.09a6.52,6.52,0,0,1,1.21-.66,5.93,5.93,0,0,1,1.25-.33,4.61,4.61,0,0,1,1.23,0,4.46,4.46,0,0,1,1.15.32,4.21,4.21,0,0,1,1,.63,3.9,3.9,0,0,1,.79,1,4.77,4.77,0,0,1,.52,1.28,6,6,0,0,1,.19,1.58"/><path class="cls-1" d="M151.15,49.54A5.07,5.07,0,0,1,151,51a4.38,4.38,0,0,1-.53,1.18,3.88,3.88,0,0,1-.8.91,4,4,0,0,1-1,.62,4.47,4.47,0,0,1-1.15.33,4.68,4.68,0,0,1-1.24,0,5.23,5.23,0,0,1-1.25-.32,5.31,5.31,0,0,1-1.21-.66l.7-1.19a4,4,0,0,0,1.19.58,3.1,3.1,0,0,0,1.15.14,2.8,2.8,0,0,0,1-.26,2.52,2.52,0,0,0,.85-.63,3.06,3.06,0,0,0,.56-.95,3.47,3.47,0,0,0,.21-1.24,4.16,4.16,0,0,0-.24-1.49,3.06,3.06,0,0,0-.64-1,2.53,2.53,0,0,0-.92-.6,3,3,0,0,0-1.07-.21,3.64,3.64,0,0,0-1.12.18,3.45,3.45,0,0,0-1,.52l-.64-1.09a6.52,6.52,0,0,1,1.21-.66,5.93,5.93,0,0,1,1.25-.33,4.61,4.61,0,0,1,1.23,0,4.35,4.35,0,0,1,1.15.32,4,4,0,0,1,1,.63,3.9,3.9,0,0,1,.79,1A4.77,4.77,0,0,1,151,48a6,6,0,0,1,.19,1.58"/><path class="cls-1" d="M150.88,43.31l-1.23-.17c-.43,0-.88-.08-1.33-.11S147.41,43,147,43s-.91,0-1.35,0a12.92,12.92,0,0,0-1.29.11,10,10,0,0,0-1.18.19L143,42c.4-.08.81-.15,1.25-.21s.88-.1,1.34-.13.92,0,1.39,0,.93,0,1.38,0,.91.07,1.34.13.85.14,1.24.23Z"/><path class="cls-1" d="M159,54V47.37a1.32,1.32,0,0,0-.12-.54,1.3,1.3,0,0,0-.37-.44,1.35,1.35,0,0,0-.6-.24,1.66,1.66,0,0,0-.8.09,3.74,3.74,0,0,0-1,.52,8,8,0,0,0-1.2,1.08V54h-1.7V46.67a.7.7,0,0,0-.07-.33.47.47,0,0,0-.18-.23.54.54,0,0,0-.23-.11.43.43,0,0,0-.25,0l.24-1.17a1.45,1.45,0,0,1,.33-.1,2.19,2.19,0,0,1,.46,0,2.11,2.11,0,0,1,.49.09,1.27,1.27,0,0,1,.46.27,1.61,1.61,0,0,1,.33.51,2.35,2.35,0,0,1,.12.81,5.64,5.64,0,0,1,1.36-1.12,4.28,4.28,0,0,1,1.33-.5,3.05,3.05,0,0,1,1.21,0,2.66,2.66,0,0,1,1,.46,2.29,2.29,0,0,1,.67.78,2.14,2.14,0,0,1,.24,1V54Z"/><path class="cls-1" d="M170.4,51a2.72,2.72,0,0,1-.21,1.09,2.86,2.86,0,0,1-.59.86,3.21,3.21,0,0,1-.86.62,4.46,4.46,0,0,1-1,.39,5.43,5.43,0,0,1-2.27,0,4.55,4.55,0,0,1-1-.35,3.28,3.28,0,0,1-.86-.59,2.74,2.74,0,0,1-.58-.84,2.6,2.6,0,0,1-.22-1.1,2.72,2.72,0,0,1,.12-.85,2,2,0,0,1,.3-.64,1.83,1.83,0,0,1,.46-.42,1.7,1.7,0,0,1,.58-.22v-.1a1.75,1.75,0,0,1-.57-.2,1.58,1.58,0,0,1-.45-.41,2,2,0,0,1-.29-.62,3,3,0,0,1-.11-.85,2,2,0,0,1,.17-.8,1.78,1.78,0,0,1,.47-.66,2.22,2.22,0,0,1,.77-.44,3,3,0,0,1,1-.16,1.39,1.39,0,0,1,.39.05,1.34,1.34,0,0,1,.34.13l.23,1.11a2.4,2.4,0,0,0-.54,0,1.3,1.3,0,0,0-.52.14,1,1,0,0,0-.4.36,1.13,1.13,0,0,0-.16.64,1.27,1.27,0,0,0,.1.5A1,1,0,0,0,165,48a1.54,1.54,0,0,0,.46.26,3.29,3.29,0,0,0,.65.15l.1.75a2.68,2.68,0,0,0-.69.27,2.07,2.07,0,0,0-.5.41,1.8,1.8,0,0,0-.3.49,1.3,1.3,0,0,0-.09.55,1.79,1.79,0,0,0,.64,1.41,1.94,1.94,0,0,0,.66.37,2.21,2.21,0,0,0,.76.13,2.44,2.44,0,0,0,.76-.1,2.12,2.12,0,0,0,.66-.36,1.85,1.85,0,0,0,.46-.6,2,2,0,0,0,.18-.87v-6h1.7Z"/><path class="cls-1" d="M175.08,54V47.37a1.67,1.67,0,0,0-.16-.76,1,1,0,0,0-.51-.5,2.25,2.25,0,0,0-1-.11,6.5,6.5,0,0,0-1.56.36l-.31-1.06a6.37,6.37,0,0,1,1.19-.39,5.69,5.69,0,0,1,1.2-.17,3.89,3.89,0,0,1,1.09.09,2.56,2.56,0,0,1,.91.37,2,2,0,0,1,.61.71,2.32,2.32,0,0,1,.23,1.07v7Z"/><path class="cls-1" d="M185.57,54V48.19a2,2,0,0,0-.23-1,2.12,2.12,0,0,0-.58-.68,2.76,2.76,0,0,0-.81-.39,3.33,3.33,0,0,0-.88-.12,3.38,3.38,0,0,0-.6.06,2.25,2.25,0,0,0-.64.2,2.62,2.62,0,0,0-.62.4,2.54,2.54,0,0,0-.54.62,3.38,3.38,0,0,0-.37.9,4.93,4.93,0,0,0-.14,1.22,4.07,4.07,0,0,0,.13,1.09,3.7,3.7,0,0,0,.31.84,2.45,2.45,0,0,0,.4.58,1.27,1.27,0,0,0,.37.3l.53-3a1.58,1.58,0,0,1,.32-.73,1.22,1.22,0,0,1,.55-.38,1.57,1.57,0,0,1,.72,0,2.24,2.24,0,0,1,.79.31l-.15,1.29a.46.46,0,0,0-.24-.1.57.57,0,0,0-.26,0,.54.54,0,0,0-.21.19.62.62,0,0,0-.13.32L182.68,54a2.38,2.38,0,0,1-1,.11,2.86,2.86,0,0,1-1-.3,3.62,3.62,0,0,1-.87-.67,4.38,4.38,0,0,1-.7-1,5.38,5.38,0,0,1-.46-1.24,5.73,5.73,0,0,1-.17-1.46,5.59,5.59,0,0,1,.35-2,4.33,4.33,0,0,1,1-1.47,4.23,4.23,0,0,1,1.47-.89,5.77,5.77,0,0,1,1.84-.29,4.92,4.92,0,0,1,.67,0,6.18,6.18,0,0,1,.62.12,4.75,4.75,0,0,1,.57.18,3.59,3.59,0,0,1,.48.23,1.13,1.13,0,0,0,.15-.29,2.37,2.37,0,0,0,.09-.36c0-.12,0-.24.06-.36a3,3,0,0,0,0-.3l1.36.35a2.38,2.38,0,0,1-.05.41,4.34,4.34,0,0,1-.14.48c-.06.17-.12.33-.19.49s-.16.28-.24.4a2.2,2.2,0,0,1,.3.39A3.19,3.19,0,0,1,187,47a3.45,3.45,0,0,1,.18.57,3.05,3.05,0,0,1,.06.6V54Z"/><path class="cls-1" d="M192,54V47.37a1.81,1.81,0,0,0-.15-.76,1,1,0,0,0-.52-.5,2.25,2.25,0,0,0-1-.11,6.5,6.5,0,0,0-1.56.36l-.31-1.06a6.62,6.62,0,0,1,1.19-.39,5.69,5.69,0,0,1,1.2-.17,3.89,3.89,0,0,1,1.09.09,2.56,2.56,0,0,1,.91.37,1.91,1.91,0,0,1,.61.71,2.32,2.32,0,0,1,.23,1.07v7Z"/><path class="cls-1" d="M203.47,44.34a1.62,1.62,0,0,1-.06.4,2.69,2.69,0,0,1-.16.45,3.48,3.48,0,0,1-.22.43,2.14,2.14,0,0,1-.28.36,2.53,2.53,0,0,1,.49.9,3.77,3.77,0,0,1,.17,1.16V54h-1.7V49.48a12.19,12.19,0,0,0-1.89.07,4.57,4.57,0,0,0-1.32.35,1.59,1.59,0,0,0-1,1.67.9.9,0,0,0,.12.41,1.2,1.2,0,0,0,.26.29,1.55,1.55,0,0,0,.36.19,1.8,1.8,0,0,0,.4.1,1.73,1.73,0,0,0,.39,0,1.67,1.67,0,0,0,.34,0l-.27,1.35a2.18,2.18,0,0,1-.76.19,2.43,2.43,0,0,1-.76-.08,2.7,2.7,0,0,1-1.33-.85,2.77,2.77,0,0,1-.42-.71,2.87,2.87,0,0,1-.17-.89,2.84,2.84,0,0,1,.2-1.24,2.48,2.48,0,0,1,.63-.89,3.23,3.23,0,0,1,1-.6,6.52,6.52,0,0,1,1.25-.34,10.51,10.51,0,0,1,1.42-.14c.5,0,1,0,1.52,0v-.16a2.09,2.09,0,0,0-.26-1.07,1.66,1.66,0,0,0-.68-.66,2.6,2.6,0,0,0-1-.3,4.79,4.79,0,0,0-1.24,0,7.45,7.45,0,0,0-1.35.38,8.73,8.73,0,0,0-1.37.68l-.31-1.38a8.66,8.66,0,0,1,1.06-.52,8.94,8.94,0,0,1,1.1-.38,11.18,11.18,0,0,1,1.1-.21,7.92,7.92,0,0,1,1.08,0,6.51,6.51,0,0,1,1,.14,3.85,3.85,0,0,1,.9.32c.05-.08.11-.17.16-.27a2,2,0,0,0,.12-.31,2.14,2.14,0,0,0,.08-.32,1.68,1.68,0,0,0,0-.29Z"/><path class="cls-1" d="M212.2,54v-5.9a2.23,2.23,0,0,0-.1-.66,2,2,0,0,0-.27-.53,1.78,1.78,0,0,0-.37-.4,1.66,1.66,0,0,0-.41-.26l-.18.18a1.13,1.13,0,0,1-.27.15,1.89,1.89,0,0,1-.38.12,2.47,2.47,0,0,1-.5,0,2.64,2.64,0,0,1-.51,0,1.8,1.8,0,0,1-.39-.12,1.13,1.13,0,0,1-.27-.15,1.11,1.11,0,0,1-.19-.18,2.67,2.67,0,0,0-.59.4,2.33,2.33,0,0,0-.5.64,3.17,3.17,0,0,0-.35.93,5.28,5.28,0,0,0-.13,1.27,4.47,4.47,0,0,0,.14,1.15,4,4,0,0,0,.36.86,2.16,2.16,0,0,0,.45.58,1.13,1.13,0,0,0,.42.28l.82-2.56a.55.55,0,0,0,0-.33.51.51,0,0,0-.15-.23.53.53,0,0,0-.25-.12.76.76,0,0,0-.3,0l.41-1.21a1.83,1.83,0,0,1,.57,0,1.73,1.73,0,0,1,.52.13,1.62,1.62,0,0,1,.44.27,1.26,1.26,0,0,1,.32.37,1.29,1.29,0,0,1,.15.47,1,1,0,0,1-.05.52L209.31,54a2.38,2.38,0,0,1-1,.11,2.79,2.79,0,0,1-1-.29,3.14,3.14,0,0,1-.86-.66,3.8,3.8,0,0,1-.69-1,5.15,5.15,0,0,1-.47-1.23,6.2,6.2,0,0,1-.19-1.46,7,7,0,0,1,.09-1.33,5.57,5.57,0,0,1,.33-1.09,3.74,3.74,0,0,1,.53-.87,4,4,0,0,1,.7-.66,4.19,4.19,0,0,1,.82-.48,5.93,5.93,0,0,1,.93-.3,1.13,1.13,0,0,0,.22.27,1.53,1.53,0,0,0,.3.19,2.06,2.06,0,0,0,.35.12l.34,0a2.07,2.07,0,0,0,.35,0,2,2,0,0,0,.34-.12,1.45,1.45,0,0,0,.29-.19.9.9,0,0,0,.21-.27,4.39,4.39,0,0,1,1.23.45,3.92,3.92,0,0,1,.94.76,3.58,3.58,0,0,1,.61,1,3.51,3.51,0,0,1,.21,1.22V54Z"/><path class="cls-1" d="M222.8,51.39a2.42,2.42,0,0,1-.18,1,2.29,2.29,0,0,1-.5.75,2.62,2.62,0,0,1-.76.54,3.83,3.83,0,0,1-1,.33,5,5,0,0,1-1.11.12,6.18,6.18,0,0,1-1.2-.09,6.89,6.89,0,0,1-1.23-.3,7.07,7.07,0,0,1-1.21-.51l.49-1.47a7.86,7.86,0,0,0,1.11.5,7.05,7.05,0,0,0,1.12.28,5.45,5.45,0,0,0,1,.07,3.15,3.15,0,0,0,.87-.15,1.52,1.52,0,0,0,.59-.39.91.91,0,0,0,.22-.62,1,1,0,0,0-.14-.52,1.55,1.55,0,0,0-.38-.39,2.76,2.76,0,0,0-.57-.29c-.21-.09-.44-.17-.69-.25l-.74-.24q-.39-.12-.75-.27a5.58,5.58,0,0,1-.69-.35,2.23,2.23,0,0,1-1-1.06,2.25,2.25,0,0,1-.14-.81,2.4,2.4,0,0,1,.25-1.09,2.19,2.19,0,0,1,.68-.8,2.82,2.82,0,0,1,1-.48,4.61,4.61,0,0,1,1.32-.14,6.85,6.85,0,0,1,1.54.23,8.69,8.69,0,0,1,1.66.62l-.37,1.31a6.85,6.85,0,0,0-1-.43,6.47,6.47,0,0,0-1-.27,3.77,3.77,0,0,0-.92-.09,2.2,2.2,0,0,0-.76.12,1.08,1.08,0,0,0-.51.36,1,1,0,0,0-.19.63.48.48,0,0,0,.14.36,1.28,1.28,0,0,0,.38.27,4.32,4.32,0,0,0,.56.23l.68.22.75.24c.25.09.5.19.74.3a5.11,5.11,0,0,1,.68.41,2.44,2.44,0,0,1,.57.54,2.3,2.3,0,0,1,.38.71,2.76,2.76,0,0,1,.14.91"/><path class="cls-1" d="M223.92,41.26a2.54,2.54,0,0,1-.3.42,3.92,3.92,0,0,1-.33.27,2.82,2.82,0,0,1-.31.21,1.18,1.18,0,0,0-.25.25.87.87,0,0,0-.16.35,1.57,1.57,0,0,0,0,.55L220.86,43a2.49,2.49,0,0,1,.07-.65,1.51,1.51,0,0,1,.18-.45,1.31,1.31,0,0,1,.27-.3,2.2,2.2,0,0,1,.32-.21l.35-.16.33-.17a1.61,1.61,0,0,0,.28-.24,1,1,0,0,0,.21-.36Z"/><path class="cls-1" d="M228.22,41.33h-.53a.9.9,0,0,0-.34.07,1,1,0,0,0-.35.2,1,1,0,0,0-.26.32.78.78,0,0,0-.09.43c0,.24,0,.46,0,.67a2.72,2.72,0,0,0,0,.28v.27a1.93,1.93,0,0,1,0,.24V54H225V43.52c0-.16,0-.31,0-.46s0-.32,0-.49a3.07,3.07,0,0,1,.1-.84,2.49,2.49,0,0,1,.29-.66,2.26,2.26,0,0,1,.43-.49,2.43,2.43,0,0,1,.54-.31,2,2,0,0,1,.59-.18,2.38,2.38,0,0,1,.59,0h.43l.21,0h.06l.23,1.25h-.22"/><path class="cls-1" d="M236.55,51.55a2.36,2.36,0,0,1-.24,1.06,2.41,2.41,0,0,1-.64.84,2.92,2.92,0,0,1-1,.52,3,3,0,0,1-1.21.12,4,4,0,0,1-1.34-.39,5.26,5.26,0,0,1-1.4-1,1.76,1.76,0,0,1-.15.6,1.35,1.35,0,0,1-.31.42,1.33,1.33,0,0,1-.41.25,2,2,0,0,1-.47.11,2.23,2.23,0,0,1-.45,0,1.45,1.45,0,0,1-.4-.13l-.25-1.17a.44.44,0,0,0,.25,0,.53.53,0,0,0,.24-.11.71.71,0,0,0,.18-.23.81.81,0,0,0,.07-.33l0-5.48a.84.84,0,0,0-.07-.33.62.62,0,0,0-.18-.23.53.53,0,0,0-.24-.11.44.44,0,0,0-.25,0l.25-1.17a1.45,1.45,0,0,1,.33-.1,2.15,2.15,0,0,1,.45,0,2.19,2.19,0,0,1,.5.09,1.15,1.15,0,0,1,.45.27,1.33,1.33,0,0,1,.33.51,2.12,2.12,0,0,1,.13.81l0,4.81a6,6,0,0,0,1.13.94,3.56,3.56,0,0,0,1,.45,1.94,1.94,0,0,0,.82,0,1.54,1.54,0,0,0,.63-.24,1.26,1.26,0,0,0,.39-.44,1.13,1.13,0,0,0,.14-.53V44.87h1.7Z"/><rect class="cls-1" x="238.83" y="44.87" width="1.7" height="9.08"/><path class="cls-1" d="M248.69,54V49.48a13.32,13.32,0,0,0-1.85.06,4.48,4.48,0,0,0-1.34.36,1.73,1.73,0,0,0-.78.67,1.55,1.55,0,0,0-.19,1,1,1,0,0,0,.13.43,1.06,1.06,0,0,0,.27.29,1.16,1.16,0,0,0,.35.18,1.37,1.37,0,0,0,.4.09,1.74,1.74,0,0,0,.71-.05l-.27,1.38a2.07,2.07,0,0,1-.74.19,2.42,2.42,0,0,1-.76-.07,2.53,2.53,0,0,1-.72-.31,2.34,2.34,0,0,1-.61-.52,2.41,2.41,0,0,1-.43-.71,2.51,2.51,0,0,1-.18-.88,2.93,2.93,0,0,1,.18-1.22,2.54,2.54,0,0,1,.6-.9,3.17,3.17,0,0,1,.95-.61,5.46,5.46,0,0,1,1.24-.36,9.19,9.19,0,0,1,1.45-.16c.52,0,1.05,0,1.61,0l0-.19a2.09,2.09,0,0,0-.22-1.05,1.68,1.68,0,0,0-.65-.67,2.5,2.5,0,0,0-1-.3,4.35,4.35,0,0,0-1.24,0,7.11,7.11,0,0,0-1.38.37,9.1,9.1,0,0,0-1.42.67l-.31-1.38a8.58,8.58,0,0,1,1.83-.79,7.7,7.7,0,0,1,1.82-.33,6,6,0,0,1,1.66.12,4.1,4.1,0,0,1,1.35.57,3,3,0,0,1,.91,1,2.84,2.84,0,0,1,.34,1.42V54Z"/><path class="cls-1" d="M258.55,54V47.74a1.6,1.6,0,0,0-.15-.7,1.52,1.52,0,0,0-.39-.52,1.75,1.75,0,0,0-.57-.35,2.33,2.33,0,0,0-.69-.17,3.14,3.14,0,0,0-.75,0,3.08,3.08,0,0,0-.74.18,3,3,0,0,0-.66.36,2.22,2.22,0,0,0-.52.54,1,1,0,0,1,.25.26,1.15,1.15,0,0,1,.15.29,1.68,1.68,0,0,1,.06.27,1.42,1.42,0,0,1,0,.19V54h-1.7V48.66a5.2,5.2,0,0,0,0-.77,2.34,2.34,0,0,0-.12-.49,1.51,1.51,0,0,0-.2-.31l-.27-.25a3.57,3.57,0,0,1,.87-1,4.59,4.59,0,0,1,1.15-.68,5.83,5.83,0,0,1,1.32-.35,6.2,6.2,0,0,1,1.36,0,5.73,5.73,0,0,1,1.27.28,3.64,3.64,0,0,1,1.07.57,2.62,2.62,0,0,1,.73.86,2.29,2.29,0,0,1,.27,1.12V54Z"/><path class="cls-1" d="M258.86,58.36V57.07a.52.52,0,0,0-.07-.25.46.46,0,0,0-.17-.17.67.67,0,0,0-.23-.1.71.71,0,0,0-.25,0l.23-1.06a.58.58,0,0,1,.26-.11,1.4,1.4,0,0,1,.43-.06,1.8,1.8,0,0,1,.51,0,1.26,1.26,0,0,1,.48.23,1.27,1.27,0,0,1,.37.47,1.86,1.86,0,0,1,.14.77v1.53Z"/><path class="cls-1" d="M268.72,54V49.48a13.32,13.32,0,0,0-1.85.06,4.48,4.48,0,0,0-1.34.36,1.79,1.79,0,0,0-.78.67,1.55,1.55,0,0,0-.19,1,1.09,1.09,0,0,0,.13.43,1.06,1.06,0,0,0,.27.29,1.16,1.16,0,0,0,.35.18,1.53,1.53,0,0,0,.4.09,1.74,1.74,0,0,0,.71-.05l-.26,1.38a2.18,2.18,0,0,1-.75.19,2.42,2.42,0,0,1-.76-.07,2.53,2.53,0,0,1-.72-.31,2.34,2.34,0,0,1-.61-.52,2.41,2.41,0,0,1-.43-.71,2.51,2.51,0,0,1-.18-.88,3.3,3.3,0,0,1,.18-1.22,2.54,2.54,0,0,1,.6-.9,3.17,3.17,0,0,1,.95-.61,5.62,5.62,0,0,1,1.24-.36,9.19,9.19,0,0,1,1.45-.16c.52,0,1.05,0,1.61,0l0-.19a2,2,0,0,0-.22-1.05,1.61,1.61,0,0,0-.65-.67,2.5,2.5,0,0,0-1-.3,4.29,4.29,0,0,0-1.23,0,6.75,6.75,0,0,0-1.38.37,8.78,8.78,0,0,0-1.43.67l-.31-1.38a8.44,8.44,0,0,1,1.84-.79,7.53,7.53,0,0,1,1.81-.33,6,6,0,0,1,1.66.12,4,4,0,0,1,1.35.57,2.9,2.9,0,0,1,.91,1,2.84,2.84,0,0,1,.34,1.42V54Z"/></g><g id="Layer_2" data-name="Layer 2"><path class="cls-2" d="M71.18,35.93A35.25,35.25,0,1,1,35.93.68,35.25,35.25,0,0,1,71.18,35.93Z"/><path class="cls-1" d="M59.8,35.75A24.21,24.21,0,1,1,35.59,11.54,24.21,24.21,0,0,1,59.8,35.75Z"/><path class="cls-3" d="M9.85,47c0-.1,0-.17-.06-.22l.79.32c0,.18.06.31.07.38a.86.86,0,0,1-.55,1L8.75,49a4.78,4.78,0,0,0,0,.49,5.52,5.52,0,0,1-.11,1,2.46,2.46,0,0,1-.07.29l2.35-.88,1,.79L8.33,52.08l-1-.79c.15-.18.36-.46.62-.84a2.41,2.41,0,0,0,.18-.73q0-.15,0-.45l-.77.29-1-.82a1.77,1.77,0,0,0,.18-.15A2.51,2.51,0,0,0,7.11,48a1.85,1.85,0,0,0,.23-.47,2.49,2.49,0,0,0,.11-.29l.2.09.33.22a2.71,2.71,0,0,1,.34.33l.06.09,1.31-.5C9.85,47.41,9.91,47.26,9.85,47ZM8.06,48.09A.22.22,0,0,0,8,48a1.44,1.44,0,0,0-.14-.3l0,0a1.11,1.11,0,0,1-.09.35,1.45,1.45,0,0,1-.11.22Z"/><path class="cls-3" d="M12.77,52.12a1.17,1.17,0,0,1,.08.29.52.52,0,0,1-.21.52l-.11.08a1.93,1.93,0,0,1-.7,0,1.31,1.31,0,0,0-1,.31,1.29,1.29,0,0,0-.28,1.11l.13.74a.24.24,0,0,0,.12,0,.4.4,0,0,0,.29-.09,1.48,1.48,0,0,0,.46-.84.85.85,0,0,1,.28-.42,1,1,0,0,1,.77-.15,2.31,2.31,0,0,1,.44.11s0-.05,0-.06a.77.77,0,0,1,0-.37.19.19,0,0,1,0-.1h0l1.06.22a1.42,1.42,0,0,0-.13.32.82.82,0,0,0,.16.69,1.16,1.16,0,0,0,.49.36.78.78,0,0,0,.53,0l-.17.06a2.58,2.58,0,0,1-.36,0l-.23,0-.19,0a1.1,1.1,0,0,1,0,.18,1.36,1.36,0,0,1,0,.61.39.39,0,0,1-.13.23l-2,1.45L11,56.91l2.25-1.66q.22-.18.12-.69a1.92,1.92,0,0,0-.14-.35L13.12,54s-.07,0-.15,0a2.39,2.39,0,0,0-.59,1,.58.58,0,0,1-.21.28,1.5,1.5,0,0,1-.93.2,4.27,4.27,0,0,1-1-.17l-.48-.16a2.17,2.17,0,0,1-.09-.45c-.11-.89,0-1.48.44-1.78a1.5,1.5,0,0,1,.84-.17,1.54,1.54,0,0,0,.8-.13.42.42,0,0,0,.14-.51,1.61,1.61,0,0,0-.08-.23Z"/><path class="cls-3" d="M16.58,57.47l-1.51-1.31,1.15-.08L18,57.58,15.41,60.5l-1.28-.22Z"/><path class="cls-3" d="M19.51,58.5l2,1.36L19.3,63l-1.47-.14a.53.53,0,0,0-.11-.09,2.51,2.51,0,0,1-.4-.5,1.06,1.06,0,0,1-.13-.47,2.45,2.45,0,0,1,0-.27l.89,0a.73.73,0,0,0-.09.18.42.42,0,0,0,0,.38.94.94,0,0,0,.28.37s0,0,.06,0L20.1,59.9l-1.64-1.14Z"/><path class="cls-3" d="M20.17,58.25a.92.92,0,0,0,.4.06l.27,0-.43.1a1.42,1.42,0,0,1-.77,0l-.12-.06a2.37,2.37,0,0,1-.6-.56l-.22-.36.39-.1a4.44,4.44,0,0,1,.94-.07,2.39,2.39,0,0,1,1.25.31A3.51,3.51,0,0,1,22.57,59c0,.08.1.2.17.36l-1,.19a.94.94,0,0,0,0-.3,1.91,1.91,0,0,0-.41-.82,3.64,3.64,0,0,0-.93-.87,2.19,2.19,0,0,0-.6-.25l-.24,0c0,.13,0,.25.07.37A1.36,1.36,0,0,0,20.17,58.25Z"/><path class="cls-3" d="M22.63,60.62a3.06,3.06,0,0,1,.29.33.77.77,0,0,1,.15.68,1.83,1.83,0,0,1-.46.36,1.15,1.15,0,0,0-.52.59A4,4,0,0,0,22,63a2.05,2.05,0,0,0,.16,1.17l.31.56a.37.37,0,0,0,.14-.08,1,1,0,0,0,.25-.36,2,2,0,0,0,.07-1,1.29,1.29,0,0,1,.09-.6,2,2,0,0,1,.93-1c.42-.23.7-.31.86-.25l1.72.69-1.42,3.59L23.8,66l1.39-3.5L24.07,62c-.05,0-.09,0-.12.07s0,.46,0,1.06a2.57,2.57,0,0,1-.13.77l0,.09,0,0a2.32,2.32,0,0,1-1.65,1l-.42.05a2.11,2.11,0,0,1-.25-.34A2,2,0,0,1,21,62.94a1.43,1.43,0,0,1,.6-.57,1.44,1.44,0,0,0,.58-.53.47.47,0,0,0-.19-.58l-.25-.18Z"/><path class="cls-3" d="M28.5,62.78h.16a1,1,0,0,1,.48.31c.16.17.23.26.2.28l-.82.44a.39.39,0,0,0,0-.14.6.6,0,0,0-.5-.37c-.21,0-.33,0-.35.12a.6.6,0,0,0,.13.41,1.11,1.11,0,0,0,.34.39,1.4,1.4,0,0,0,.55.23,1.49,1.49,0,0,0,.42,0l.17,0a4.37,4.37,0,0,0-.62.2c-.56.22-.87.44-.92.68s.19.63.74,1l.88.46L30,63.68l1.25-.45-.71,3.45-1.92.65a1.86,1.86,0,0,1-.6-.22c-1-.5-1.47-1-1.36-1.51t0,0c.05-.24.26-.43.65-.57a3.59,3.59,0,0,1,.58-.15c-.59-.13-.92-.41-1-.83a.34.34,0,0,1,0-.09c0-.2.25-.43.63-.68A3.16,3.16,0,0,1,28.5,62.78Z"/><path class="cls-3" d="M33.88,64.36l-2-.13.87-.76,2.28.15-.25,3.86-1.15.6Z"/><path class="cls-3" d="M37.52,68.39a1.43,1.43,0,0,1-.3-.22,1.93,1.93,0,0,1,0-3.28,1.32,1.32,0,0,1,.33-.24L36,64.78l.6-.87,4-.32.31,3.85-1.12.77a6.52,6.52,0,0,1-.43-.63l-.74-1.16a5,5,0,0,0-.81-1l-.5-.36c0,.08-.07.17-.11.25a2.59,2.59,0,0,0,0,.68,1.38,1.38,0,0,0,.19.65,2.16,2.16,0,0,0,.63.67,1,1,0,0,0,.5.14Zm.65-3.79.35.35c.16.16.27.28.32.34s.21.24.53.61c.06.08.16.19.29.33l-.14-1.74Z"/><path class="cls-3" d="M39,61.72a1.09,1.09,0,0,0-.08.15.48.48,0,0,0-.06.31c0,.26.37.34,1,.24a1.86,1.86,0,0,0,.84-.46,4.72,4.72,0,0,0,.66-.68l.25-.34-.27.51a4.32,4.32,0,0,1-.86,1,3,3,0,0,1-1.43.72,1.8,1.8,0,0,1-1-.16l-.43-.27Z"/><path class="cls-3" d="M42.79,63a.39.39,0,0,1,.14-.08,1,1,0,0,1,.57.06c.22.07.32.12.31.14l-.52.77-.09-.1a.62.62,0,0,0-.62-.1c-.2.06-.29.15-.25.27s.13.21.3.31a1.41,1.41,0,0,0,.49.18,1.31,1.31,0,0,0,.59,0,1.49,1.49,0,0,0,.39-.17l.13-.11a5.2,5.2,0,0,0-.45.47c-.4.45-.57.8-.5,1s.46.47,1.14.57h1l-.89-3.09.89-1,1,3.39L45,66.94a1.58,1.58,0,0,1-.63.08c-1.12,0-1.76-.19-1.9-.69l0,0c-.07-.23,0-.51.32-.82a3.24,3.24,0,0,1,.44-.39c-.59.16-1,.06-1.25-.29a.27.27,0,0,0,0-.08,1.44,1.44,0,0,1,.24-.9A3,3,0,0,1,42.79,63Z"/><path class="cls-3" d="M47.16,62,47,62l.24-.82.38-.1a.86.86,0,0,1,1.06.46l.63,1.29a4.32,4.32,0,0,0,.49,0,4.79,4.79,0,0,1,1,0l.3,0-1.1-2.25.7-1.1L52.33,63l-.69,1.09a8,8,0,0,0-.9-.54,2.51,2.51,0,0,0-.74-.11h-.45l.36.74-.72,1.1L49,65.13a2.73,2.73,0,0,0-.64-.53,2.64,2.64,0,0,0-.49-.19l-.31-.08a1.38,1.38,0,0,1,.08-.2,2.4,2.4,0,0,1,.18-.36,3.17,3.17,0,0,1,.31-.37l.07-.06-.61-1.26C47.54,61.92,47.39,61.88,47.16,62Zm1.22,1.68-.13,0-.29.17,0,0a.72.72,0,0,1,.35,0l.23.08Z"/><path class="cls-3" d="M52.29,58.69a1.29,1.29,0,0,1,.29-.09.52.52,0,0,1,.52.2l.08.11a2.09,2.09,0,0,1,0,.7,1.36,1.36,0,0,0,.34,1,1.33,1.33,0,0,0,1.12.25l.73-.14a.24.24,0,0,0,0-.12.43.43,0,0,0-.09-.3,1.59,1.59,0,0,0-.85-.44.76.76,0,0,1-.43-.27,1,1,0,0,1-.17-.77,2.3,2.3,0,0,1,.1-.44h-.06a.78.78,0,0,1-.37,0,.1.1,0,0,1-.09,0,.08.08,0,0,1,0,0l.2-1.06a1.93,1.93,0,0,0,.32.12.8.8,0,0,0,.68-.17,1.08,1.08,0,0,0,.35-.5.78.78,0,0,0,.05-.53l.06.17a1.49,1.49,0,0,1,.05.36,2,2,0,0,1,0,.23l0,.19.18,0a1.58,1.58,0,0,1,.62,0,.47.47,0,0,1,.23.13l1.49,1.93-.5,1.17L55.4,58.14c-.12-.16-.35-.19-.68-.11a1.34,1.34,0,0,0-.35.15l-.21.12s0,.07.05.15a2.34,2.34,0,0,0,1,.56.7.7,0,0,1,.29.21,1.49,1.49,0,0,1,.21.93,4.32,4.32,0,0,1-.13,1c0,.11-.09.27-.15.49a2.17,2.17,0,0,1-.45.09c-.89.13-1.49,0-1.8-.4a1.58,1.58,0,0,1-.18-.84,1.63,1.63,0,0,0-.15-.8.43.43,0,0,0-.51-.12,1,1,0,0,0-.23.09Z"/><path class="cls-3" d="M52.8,57.17A.86.86,0,0,0,53,56.8l0-.26A2.89,2.89,0,0,1,53,57a1.27,1.27,0,0,1-.24.72l-.09.1a2.28,2.28,0,0,1-.69.44l-.41.12V58a4.45,4.45,0,0,1,.18-.93,2.42,2.42,0,0,1,.62-1.13A3.5,3.5,0,0,1,54.14,55l.39-.07-.06,1a.8.8,0,0,0-.31-.07,2,2,0,0,0-.89.18,3.73,3.73,0,0,0-1.09.68,2.31,2.31,0,0,0-.39.51l-.09.22.36,0A1.39,1.39,0,0,0,52.8,57.17Z"/><path class="cls-3" d="M58.54,52l3,2.43-.18,1.28-2.9-2.34-1.69,2.1c.09.09.21.19.35.31a1.11,1.11,0,0,0,.82,0l.48-.2,0-.08a.64.64,0,0,0-.13-.15c-.1-.08-.26-.08-.48,0l-.09,0-.12-.84a1,1,0,0,1,.26-.14.43.43,0,0,1,.46,0,.45.45,0,0,1,.14.19,2.54,2.54,0,0,1,.12.91c0,.58,0,.91.11,1a.8.8,0,0,0,.84.12,1.61,1.61,0,0,0,.39-.25l.21.84-.23.17a1.38,1.38,0,0,1-1,.15.67.67,0,0,1-.19-.1.71.71,0,0,1-.24-.45v-.54c-.61.28-1.07.29-1.37.05a2,2,0,0,1-.56-1.73,1.49,1.49,0,0,1,.07-.46Z"/><path class="cls-3" d="M63.78,51.89a1.45,1.45,0,0,1-.33.14,2.19,2.19,0,0,1-1.68.06,2.14,2.14,0,0,1-1.15-1.72,1.23,1.23,0,0,1,0-.41l-.7,1.42-.44-1,1.76-3.61,3.48,1.7.09,1.35a5.24,5.24,0,0,1-.77.05l-1.37,0a5.11,5.11,0,0,0-1.23.21l-.58.25.17.22a2.63,2.63,0,0,0,.56.38,1.45,1.45,0,0,0,.66.16,2.07,2.07,0,0,0,.9-.19,1,1,0,0,0,.38-.37Zm-2.92-2.5.47-.12.46-.11.8-.13.42-.09-1.56-.76Z"/><path class="cls-3" d="M8.38,21.23a.94.94,0,0,1,.3-.22c.16-.09.24-.13.25-.11l.17,1-.13,0a.55.55,0,0,0-.24.09,1.5,1.5,0,0,0-.26.28c-.05.07,0,.15.14.24a.88.88,0,0,0,.51.13l.62-.06A3.94,3.94,0,0,0,11.18,22l.25-.24L8.87,20.25,7.41,22.71l-.35-1,1.71-2.88,3.09,1.84-.12,2a.08.08,0,0,1,0,.05,1.6,1.6,0,0,1-.52.36,4.53,4.53,0,0,1-1.13.41A1.58,1.58,0,0,1,9,23.37a1.79,1.79,0,0,1-.65-.83,1.21,1.21,0,0,1,0-1.18Z"/><path class="cls-3" d="M11.33,16.85a.9.9,0,0,1,.27-.11.53.53,0,0,1,.5.07c.21.18.24.66.08,1.44,0,.26,0,.43.08.52a.72.72,0,0,0,.67.16l.6-.34.11.95c0,.05-.11.15-.38.28a1.12,1.12,0,0,1-.79.13.62.62,0,0,1-.2-.1A.89.89,0,0,1,12,19.2c0-.15,0-.29,0-.43-.62.29-1.08.31-1.37.06-.47-.38-.58-1.06-.34-2,.09-.34.16-.52.23-.55l.35-.05a.87.87,0,0,0,.56-.26.92.92,0,0,0,.18-.61,3.58,3.58,0,0,0,0-.36l.31-.2a1.3,1.3,0,0,1,.56-.2,1,1,0,0,1,.49.22l2.23,1.84L15,17.92l-2.74-2.26c-.1-.08-.3,0-.58.2,0,.12-.06.24-.08.37a1.53,1.53,0,0,1-.34.62,1.47,1.47,0,0,1-.56.31l-.35.11c0,.1,0,.19.06.26a.88.88,0,0,0,.24.42l.06,0a1.48,1.48,0,0,0,.85,0l.58-.19a.08.08,0,0,1,0,0,.2.2,0,0,0-.09-.09.42.42,0,0,0-.53,0l-.12.09Z"/><path class="cls-3" d="M15.43,18.56c-.21-.2-.17-.44.11-.73s.54-.34.75-.13.17.44-.11.73S15.64,18.77,15.43,18.56Z"/><path class="cls-3" d="M15.24,13l.28-.06a.55.55,0,0,1,.48.16c.18.21.12.69-.17,1.43-.09.25-.1.43,0,.52a.7.7,0,0,0,.63.28l.65-.22-.05.95c0,.05-.14.12-.43.2a1.15,1.15,0,0,1-.8,0,.73.73,0,0,1-.18-.14.93.93,0,0,1-.14-.68c0-.15.05-.29.08-.43-.66.18-1.12.12-1.37-.17-.39-.46-.38-1.15,0-2.08.15-.32.25-.49.33-.5h.35a.92.92,0,0,0,.6-.16.9.9,0,0,0,.27-.57,2,2,0,0,0,0-.36l.34-.14a1.2,1.2,0,0,1,.59-.1,1,1,0,0,1,.44.3l1.88,2.2-.42,1.25L16.34,12c-.09-.1-.29-.07-.61.09l-.14.35a1.6,1.6,0,0,1-.44.56,1.47,1.47,0,0,1-.6.21l-.37,0a1.87,1.87,0,0,0,0,.27.72.72,0,0,0,.16.45l.05.05a1.33,1.33,0,0,0,.84.11l.6-.08s0,0,0-.05a.3.3,0,0,0-.07-.1.43.43,0,0,0-.52-.1l-.13.07Z"/><path class="cls-3" d="M19.56,9.58l-1.73,1.07.3-1.13,2-1.23,2,3.26-.63,1.17Z"/><path class="cls-3" d="M21.57,8.28l.46-.9.41,0c.29.07.46.17.53.32l0,0A3.26,3.26,0,0,1,22.83,9a1,1,0,0,0,0,.63,1.17,1.17,0,0,0,.05.11,1.27,1.27,0,0,0,.76.53,1.56,1.56,0,0,0,1,.06c.07,0,.17-.11.29-.29s.19-.28.18-.31l-1-2.43.8-1.08L26.1,9l-.63.45.25,0a1.19,1.19,0,0,1,.7.12c.12.06.17.1.17.11l-.46.89a1,1,0,0,0-1.1-.3.86.86,0,0,0-.44.59c-.08.26-.12.4-.12.41a1.71,1.71,0,0,1-.46,0c-.9-.05-1.45-.29-1.64-.74a1.08,1.08,0,0,1,0-.71,2.69,2.69,0,0,0,.18-1.11.14.14,0,0,0,0-.06s0,0,0,0A.59.59,0,0,0,22,8.25,2.35,2.35,0,0,0,21.57,8.28Z"/><path class="cls-3" d="M22.9,6a.31.31,0,0,1-.19-.15.13.13,0,0,1,0-.08l.67-.94A1.25,1.25,0,0,1,24,4.49l.16,0a1.1,1.1,0,0,1,.43,0c.2,0,.31.07.33.14s0,.07,0,.11l-.64,1.06a1.09,1.09,0,0,1-.57.32l-.26.06A.9.9,0,0,1,22.9,6Zm.3-.65a.24.24,0,0,0,.15.17,1.09,1.09,0,0,0,.52,0l.18,0a.61.61,0,0,0,.35-.24.53.53,0,0,0,.05-.15s0,0,0-.06-.19-.16-.45-.11L23.73,5a1.14,1.14,0,0,0-.48.26A.35.35,0,0,1,23.2,5.35Z"/><path class="cls-3" d="M36.7,4.6a.93.93,0,0,1,.33.16c.16.1.23.16.22.17l-.8.62a.59.59,0,0,0-.08-.11.42.42,0,0,0-.19-.17,2.07,2.07,0,0,0-.37-.09c-.08,0-.13.06-.14.23a.89.89,0,0,0,.12.52c.15.23.26.4.35.51a3.55,3.55,0,0,0,1.19,1l.32.12.14-3-2.85-.13.7-.77L39,3.82l-.16,3.6L37,8.23H37A1.68,1.68,0,0,1,36.42,8a4.62,4.62,0,0,1-.89-.81,1.53,1.53,0,0,1-.44-1,1.75,1.75,0,0,1,.43-1,1.24,1.24,0,0,1,1-.59Z"/><path class="cls-3" d="M37.8,8.39l.13,0a1,1,0,0,1,.58.37.22.22,0,0,1,.06.16l-.09.68-1.1.43.11-.87A.28.28,0,0,0,37.44,9a.47.47,0,0,0-.28-.1.57.57,0,0,0-.18,0Z"/><path class="cls-3" d="M41.73,4.38a1.35,1.35,0,0,1,.27.26.73.73,0,0,1,.18.63l0,.07a.15.15,0,0,0,0,.06,2,2,0,0,1-.57.52c-.29.2-.46.37-.49.51a.76.76,0,0,0,0,.3,2.73,2.73,0,0,0,.77,1.34,1.89,1.89,0,0,0,.75.42h.11l1-4.13L45,4,43.86,8.6l-2,.42c-.08,0-.27-.07-.59-.27-.91-.58-1.29-1.21-1.11-1.9a.91.91,0,0,1,.38-.52c.47-.35.72-.6.75-.74a.64.64,0,0,0,0-.09.54.54,0,0,0-.22-.43,1.39,1.39,0,0,0-.26-.18Z"/><path class="cls-3" d="M46.09,6.48l-.2-.11L46.68,6l.33.22a.87.87,0,0,1,.38,1.09l-.55,1.32a3.5,3.5,0,0,0,.37.35,5.29,5.29,0,0,1,.66.76,3,3,0,0,1,.18.25l1-2.28,1.31-.19-1.48,3.53-1.31.17a7.7,7.7,0,0,0-.2-1,2.34,2.34,0,0,0-.43-.63c-.06-.08-.17-.19-.31-.34l-.31.75L45,10.17c0-.06,0-.14,0-.23a2.65,2.65,0,0,0,0-.83,2.14,2.14,0,0,0-.19-.49,1.91,1.91,0,0,0-.15-.28l.21-.08a2.46,2.46,0,0,1,.39-.08,2,2,0,0,1,.49,0h.11l.53-1.27C46.39,6.74,46.31,6.6,46.09,6.48Zm-.44,2s0,0-.12-.07a1.34,1.34,0,0,0-.32-.11.08.08,0,0,0,0,0,.9.9,0,0,1,.2.3l.09.23Z"/><path class="cls-3" d="M49.05,6a.32.32,0,0,1,0-.25s0,0,.07,0l1.13-.16a1.21,1.21,0,0,1,.68.22l.14.08a1.4,1.4,0,0,1,.33.29c.12.16.16.27.13.34a.14.14,0,0,1-.1.06l-1.21.26a1.06,1.06,0,0,1-.62-.19.91.91,0,0,1-.23-.15A.84.84,0,0,1,49.05,6Zm.68-.24a.25.25,0,0,0,0,.23,1.35,1.35,0,0,0,.36.39l.15.1a.6.6,0,0,0,.42.08.39.39,0,0,0,.14-.06l0,0c.07-.12,0-.25-.23-.4l-.24-.15a1.42,1.42,0,0,0-.52-.17Z"/><path class="cls-3" d="M54.25,16.05l2.38-2.19a.39.39,0,0,0,.15-.35,1.54,1.54,0,0,0-.15-.36l-.12-.2,1,.05,2.35,2.55-2.81,2.59-1.27-.4,2.71-2.5-1-1.1,0,.46-2,1.85Z"/><path class="cls-3" d="M58.31,19.93a.76.76,0,0,0,.09.23l.08.15-.93-.3c-.12,0-.19-.24-.23-.62s0-.48.12-.56L60.06,17l1.21.55-2.86,2A.32.32,0,0,0,58.31,19.93Z"/><path class="cls-3" d="M59,21l1,.37a.8.8,0,0,0-.19,1.11.74.74,0,0,0,.47.42.59.59,0,0,0,.39-.09,1.93,1.93,0,0,0,.82-1,3.36,3.36,0,0,0,.11-2.35q0-.11-.12-.33l1.06.27,1.66,3-1.09-.31-.49-.89a1.67,1.67,0,0,1-.09.34,2.29,2.29,0,0,1-1,1.41,1.88,1.88,0,0,1-.44.17,2.57,2.57,0,0,1-2-.65.34.34,0,0,1-.09-.12,1.45,1.45,0,0,1-.13-.83C58.87,21.15,58.91,21,59,21Z"/><path class="cls-3" d="M35.93,71.86A35.93,35.93,0,1,1,71.86,35.93,36,36,0,0,1,35.93,71.86Zm0-70.51A34.58,34.58,0,1,0,70.51,35.93,34.62,34.62,0,0,0,35.93,1.35Z"/><path class="cls-3" d="M35.93,70.21A34.28,34.28,0,1,1,70.21,35.93,34.32,34.32,0,0,1,35.93,70.21Zm0-68.2A33.92,33.92,0,1,0,69.85,35.93,34,34,0,0,0,35.93,2Z"/><path class="cls-3" d="M35.59,61.33A25.58,25.58,0,1,1,61.16,35.75,25.62,25.62,0,0,1,35.59,61.33Zm0-50.8A25.22,25.22,0,1,0,60.81,35.75,25.25,25.25,0,0,0,35.59,10.53Z"/><path class="cls-3" d="M5.93,36.55a.82.82,0,1,1,.81-.81A.81.81,0,0,1,5.93,36.55Zm0-1.51a.7.7,0,1,0,.7.7A.7.7,0,0,0,5.93,35Z"/><path class="cls-3" d="M7.52,34.79c-.37-.26-.84.1-.84.1h0l0,0c.38-.42-.06-1.25-.06-1.25A9.14,9.14,0,0,1,6,32.31a6.21,6.21,0,0,1-.75,1.34c-.47.8,0,1.2,0,1.2h0l0,0c-.12-.07-.55-.31-.86-.09a5.91,5.91,0,0,1-1.16,1,5.67,5.67,0,0,1,.83.58s.6.69,1.13.23l0,0c0,.06-.33.48.1,1.21A6.21,6.21,0,0,1,6,39.12a9.14,9.14,0,0,1,.58-1.31s.51-.84.12-1.26h0c.53.46,1.13-.23,1.13-.23a5.67,5.67,0,0,1,.83-.58A5.91,5.91,0,0,1,7.52,34.79Zm-1.59,2a1,1,0,1,1,1-1A1,1,0,0,1,5.93,36.76Z"/><path class="cls-3" d="M65.6,36.55a.82.82,0,1,1,.81-.81A.82.82,0,0,1,65.6,36.55Zm0-1.51a.7.7,0,1,0,.7.7A.69.69,0,0,0,65.6,35Z"/><path class="cls-3" d="M67.19,34.79c-.37-.26-.83.1-.83.1h0l0,0c.38-.42,0-1.25,0-1.25a9.58,9.58,0,0,1-.59-1.31,6.27,6.27,0,0,1-.74,1.34c-.48.8,0,1.2,0,1.2h0l0,0c-.12-.07-.54-.31-.85-.09a6,6,0,0,1-1.17,1,5.67,5.67,0,0,1,.83.58s.61.69,1.14.23c0,0,0,0,0,0s-.34.48.1,1.21a6.27,6.27,0,0,1,.74,1.34,9.58,9.58,0,0,1,.59-1.31s.5-.84.12-1.26h0c.53.46,1.13-.23,1.13-.23a5.39,5.39,0,0,1,.84-.58A5.74,5.74,0,0,1,67.19,34.79Zm-1.59,2a1,1,0,0,1,0-2,1,1,0,1,1,0,2Z"/><path class="cls-3" d="M35.59,60.53A24.78,24.78,0,1,1,60.37,35.75,24.81,24.81,0,0,1,35.59,60.53Zm0-48.42A23.65,23.65,0,1,0,59.23,35.75,23.67,23.67,0,0,0,35.59,12.11Z"/><path class="cls-4" d="M30,49.65a2.24,2.24,0,0,0-1.39,2.16,3.71,3.71,0,0,0,1.48,2.89,3.42,3.42,0,0,0,1.87.68s.87.17,1.64-1.71A9.39,9.39,0,0,0,34,51.16l.26.29s-.08,2.61-1.22,3.72c0,0-.6,1.12-2.38.21a3.87,3.87,0,0,1-2.24-3.51s0-2,1.62-2.46A.31.31,0,0,1,30,49.65Z"/><path class="cls-4" d="M41.4,44a3.06,3.06,0,0,0-2.71,2.27,3.68,3.68,0,0,0,.17,2.19,3.63,3.63,0,0,1,0,2.11,2.06,2.06,0,0,0,1.41-1.76,6.69,6.69,0,0,0-.06-2.26,2.05,2.05,0,0,1,1.28-1.91Z"/><path class="cls-4" d="M45.17,45.54l-.44-.65a1.85,1.85,0,0,0,.53-1.59s-.1-.71-.68-.69c0,0-.86.07-.5,1.14a1.6,1.6,0,0,1-1.34-1.51s0-.78.52-1.05c0,0,.54-.41,1-.13,0,0-.24-.94,1-2.12a3.49,3.49,0,0,1,1.57-1.11,1.69,1.69,0,0,0-.65.9,3,3,0,0,0-.05,1.39,1.79,1.79,0,0,1-.45,1.44s.07.14.41-.3c0,0,.22-.35.51-.27,0,0-.38,0-.25.94a3.51,3.51,0,0,1,0,2A6.21,6.21,0,0,1,45.17,45.54Z"/><path class="cls-4" d="M44.1,37.65a6.47,6.47,0,0,0-.36-4.46,2.6,2.6,0,0,1-.34,1.57A3.78,3.78,0,0,0,42.77,36a.86.86,0,0,0-.48-.68s.18.41-.14.62a2.43,2.43,0,0,0-.45,1,1.32,1.32,0,0,0,.27.84s0-.62.47-.6c0,0,.51,0,.47.83a5,5,0,0,1-.62,1.64,2.13,2.13,0,0,0-.56-1.14,1.25,1.25,0,0,0-1.15-.18,9.63,9.63,0,0,1,.32-2.46s.37-1.14,1.26-1.19a.77.77,0,0,1,.58.5,1.86,1.86,0,0,1,.29-.78s.79-1.26-.4-4.23A3.54,3.54,0,0,1,42.38,32s-.41.81-.21,1.2a.52.52,0,0,1-.22.62,1,1,0,0,0-.23-.77s.09.38-.06.49a3.74,3.74,0,0,0-.74,1S40,33.4,37.41,33.09l.13.41a3.87,3.87,0,0,1,1.81.67,1.19,1.19,0,0,1,.12.87,1.33,1.33,0,0,1,.72,1s.05,1,.05,1.91a4,4,0,0,1-.54,2.3.83.83,0,0,1-.32.2s-.27.09-.18.3a.27.27,0,0,0,.38.19,2,2,0,0,0,.85-1.18,3.48,3.48,0,0,0,.16-1,.71.71,0,0,1,1,.28,2.44,2.44,0,0,1,.24,1.38s-.17,1.12-.3,1.79a5.82,5.82,0,0,0,0,2.6,2,2,0,0,0,1.4,1.44,1.22,1.22,0,0,0,.88-.06.77.77,0,0,0-.28-.51,1.32,1.32,0,0,1-1.58-1.19,5.44,5.44,0,0,1,.62-3.69A16.8,16.8,0,0,0,44.1,37.65Zm-3.68-2.19a1.59,1.59,0,0,0-.53-.71,1,1,0,0,0-.07-.55,2.51,2.51,0,0,1,.86.67A1.66,1.66,0,0,0,40.42,35.46Z"/><path class="cls-4" d="M25.83,45.46l.54-.64a1.71,1.71,0,0,1-.5-1.52s.1-.71.69-.69c0,0,.85.07.5,1.14a1.6,1.6,0,0,0,1.33-1.51s0-.78-.51-1.05c0,0-.54-.41-1-.13,0,0,.25-.94-.95-2.12a3.55,3.55,0,0,0-1.58-1.11,1.68,1.68,0,0,1,.66.9,3,3,0,0,1,0,1.39,1.77,1.77,0,0,0,.46,1.44s-.08.14-.41-.3c0,0-.22-.35-.51-.27,0,0,.37,0,.24.94a3.61,3.61,0,0,0,0,2A4.23,4.23,0,0,0,25.83,45.46Z"/><path class="cls-4" d="M28.59,40.78a5.4,5.4,0,0,1,.61,3.69,1.31,1.31,0,0,1-1.54,1.22.88.88,0,0,0-.31.48,1.2,1.2,0,0,0,.87.06,1.93,1.93,0,0,0,1.4-1.44,5.9,5.9,0,0,0,0-2.6c-.14-.67-.3-1.79-.3-1.79A2.35,2.35,0,0,1,29.57,39a.7.7,0,0,1,1-.28,3.36,3.36,0,0,0,.17,1A2,2,0,0,0,31.55,41a.27.27,0,0,0,.38-.19c.09-.21-.17-.3-.17-.3a.82.82,0,0,1-.33-.2A3.93,3.93,0,0,1,30.9,38c0-.86,0-1.91,0-1.91a1.33,1.33,0,0,1,.73-1,1.14,1.14,0,0,1,.12-.87,4,4,0,0,1,1.87-.67l.14-.41a5.61,5.61,0,0,0-3.58,1.45,4,4,0,0,0-.74-1c-.15-.11-.06-.49-.06-.49a1,1,0,0,0-.24.77.52.52,0,0,1-.22-.62c.21-.39-.21-1.2-.21-1.2a3.68,3.68,0,0,1-.25-1.71c-1.19,3-.4,4.23-.4,4.23a2,2,0,0,1,.3.78.76.76,0,0,1,.58-.5c.88,0,1.25,1.19,1.25,1.19a9.37,9.37,0,0,1,.33,2.46,1.27,1.27,0,0,0-1.16.18,2.22,2.22,0,0,0-.56,1.14,5,5,0,0,1-.62-1.64c0-.79.47-.83.47-.83.45,0,.48.6.48.6a1.29,1.29,0,0,0,.26-.84A2.33,2.33,0,0,0,29,36a.51.51,0,0,1-.15-.62.86.86,0,0,0-.47.68,4,4,0,0,0-.64-1.26,2.69,2.69,0,0,1-.34-1.57A6.43,6.43,0,0,0,27,37.65,16.17,16.17,0,0,0,28.59,40.78Zm1.87-5.91a2.52,2.52,0,0,1,.85-.67,1.15,1.15,0,0,0-.07.55,1.68,1.68,0,0,0-.53.71A1.69,1.69,0,0,0,30.46,34.87Z"/><path class="cls-4" d="M36,13.49a.41.41,0,0,1-.41.42.42.42,0,0,1-.42-.42.41.41,0,0,1,.42-.41A.41.41,0,0,1,36,13.49Z"/><path class="cls-4" d="M35.62,14.08s.49,2.56.62,3.45c0,0-.43.39-.64.62a2.94,2.94,0,0,0-.69-.57S35.14,16.26,35.62,14.08Z"/><path class="cls-4" d="M28.78,51a1.9,1.9,0,0,0,1.75-1.31,1.48,1.48,0,0,0-.3-1.3A1.32,1.32,0,0,0,29,48a1.27,1.27,0,0,1,1.24-.61,1.68,1.68,0,0,1,1.22,1.36,2.58,2.58,0,0,1-.45,1.94,2.68,2.68,0,0,1-2.44,1.08Z"/><path class="cls-4" d="M41.61,45.08a1.64,1.64,0,0,0-.79,1.58s.07.71.14,1.23a3.17,3.17,0,0,1-.31,1.83,3.58,3.58,0,0,1-1.28,1.16,7.65,7.65,0,0,1-1.3.5s.18-.4.3-.76a3,3,0,0,0,0-1.8s-.12-.43-.24-1a3.44,3.44,0,0,1,.33-2.5,3.52,3.52,0,0,1,2.93-1.76v.23a3.59,3.59,0,0,0-2.6,1.41,3.65,3.65,0,0,0-.5,2s.16.91.29,1.52c0,0,.38,1.64-.11,2.3a3.32,3.32,0,0,0,1.9-1.27,2.62,2.62,0,0,0,.4-1.76,8,8,0,0,1-.13-1.53,2.16,2.16,0,0,1,1-1.58Z"/><path class="cls-4" d="M28.88,50.73a1.6,1.6,0,0,0,1.35-1.06,1.13,1.13,0,0,0-.46-1.31,1.63,1.63,0,0,0-1-.06A1.35,1.35,0,0,1,30,47.12a1.91,1.91,0,0,1,1.75,1.29,2.93,2.93,0,0,1-.14,2,3,3,0,0,1-3,1.59l0,.2a3.15,3.15,0,0,0,2.78-1.13,2.86,2.86,0,0,0,.49-2.83A2.13,2.13,0,0,0,30,47a1.51,1.51,0,0,0-1.46,1.65s.86-.41,1.3.06a1,1,0,0,1,0,1.32s-.52.54-.88.53Z"/><path class="cls-4" d="M27.91,50.3a2.93,2.93,0,0,1-1.15-2.2,3,3,0,0,1,1.61-2.69,3.52,3.52,0,0,1,3.19.09,5.5,5.5,0,0,1,2,2.19A4.77,4.77,0,0,1,34,49.57l.28.27a5.55,5.55,0,0,0-1.09-3,4.72,4.72,0,0,0-2.87-2,3.8,3.8,0,0,0-2.31.44,3.31,3.31,0,0,0-1.5,2.31,3.27,3.27,0,0,0,1.25,2.91Z"/><path class="cls-4" d="M30.1,49.29a2.29,2.29,0,0,0-1.76,2,4,4,0,0,0,.5,2.7,4.46,4.46,0,0,0,2.62,2A1.83,1.83,0,0,0,33,55.58a4.27,4.27,0,0,0,1.39-2.78,5.07,5.07,0,0,0,.14-1.09,13.7,13.7,0,0,1,1.23,1.91,6.79,6.79,0,0,1-1.23,2.93,2.21,2.21,0,0,1-2.4.87,6.82,6.82,0,0,1-3.6-2.81,4.84,4.84,0,0,1-.74-2.74,3.21,3.21,0,0,1,1-2.31A2.63,2.63,0,0,1,30.05,49Z"/><path class="cls-4" d="M32,48.57a5,5,0,0,1,2.48,1.32s1.47,1.34,2.27,2.23c0,0,1.35,1.54,1.7,1.88,0,0,.49.52.74.52,0,0,.24.15,1.69-1.25a10.6,10.6,0,0,0,2.2-3.15,7.79,7.79,0,0,0,.88-2.91s.06-1.39-.74-1.86a2.14,2.14,0,0,0-1.15-.42L42,44.78s.53-.16,1.45.5a2.42,2.42,0,0,1,.73,1.78,7.68,7.68,0,0,1-1,3.4A15,15,0,0,1,41.42,53s-1.57,1.82-2.24,1.77c0,0-.2,0-.59-.25L37,52.71a23.44,23.44,0,0,0-1.88-2,13.61,13.61,0,0,0-1.87-1.42s-.9-.55-1.29-.49Z"/><path class="cls-4" d="M41.84,44A3.16,3.16,0,0,1,44.18,45a3.87,3.87,0,0,1,.9,2.59,8.74,8.74,0,0,1-.66,3.12,12.67,12.67,0,0,1-1.59,2.9,21.7,21.7,0,0,1-2.18,2.48,8.52,8.52,0,0,1-1.44,1.05s-.5.31-1.21-.48a4.19,4.19,0,0,1-.79-1.41,37,37,0,0,0-1.85-3.22S33.72,49.92,32,49.52l.06-.54a5.29,5.29,0,0,1,2.64,1.6,15.44,15.44,0,0,1,2,2.17S37.65,54,38,54.43c0,0,.54.66,1,.68,0,0,.59.16,1.71-.94A12.19,12.19,0,0,0,43,51.3a9.57,9.57,0,0,0,1.26-3.19A3.44,3.44,0,0,0,44,45.57a2.48,2.48,0,0,0-2-1Z"/><path class="cls-4" d="M41.77,43.55a3.81,3.81,0,0,1,2.39.85,3.76,3.76,0,0,1,1.17,1.77,5.24,5.24,0,0,1,.15,2.69,11,11,0,0,1-1.41,3.76,22.8,22.8,0,0,1-1.73,2.55,15.29,15.29,0,0,1-2,1.92s-.87.79-1.42.72c0,0-1,.11-1.82-1.4,0,0-.6-1.22-.93-1.93a18.34,18.34,0,0,0-1.74-2.77A5.25,5.25,0,0,0,32,49.9v-.2a5.46,5.46,0,0,1,2.36,1.52,10.37,10.37,0,0,1,1.58,2.27s.62,1.07.9,1.74c0,0,.34.66.59,1.1a3,3,0,0,0,1,1.09,1.12,1.12,0,0,0,1.14-.05,11.91,11.91,0,0,0,2.37-2.1,19.12,19.12,0,0,0,2.07-3,12.45,12.45,0,0,0,1.15-3.09A5.36,5.36,0,0,0,45,46a3.85,3.85,0,0,0-1.29-1.65,4.22,4.22,0,0,0-2-.58Z"/><path class="cls-4" d="M30,48.79A3.17,3.17,0,0,0,28,50.34a4.07,4.07,0,0,0-.24,2.92A7.36,7.36,0,0,0,29.51,56a6,6,0,0,0,3.43,1.68,2.56,2.56,0,0,0,1.61-.78A7.08,7.08,0,0,0,36,54.13l.13.18A8.68,8.68,0,0,1,34.71,57a2.24,2.24,0,0,1-1.84.9A4.1,4.1,0,0,1,30.52,57a6.61,6.61,0,0,1-2.58-3,4.48,4.48,0,0,1-.46-2.27,3.68,3.68,0,0,1,1.2-2.44,3.07,3.07,0,0,1,1.23-.64Z"/><path class="cls-4" d="M34.63,50.08a6.34,6.34,0,0,0-1.37-3.7,5.05,5.05,0,0,0-2.19-1.6,4.31,4.31,0,0,0-2.35-.09,3.52,3.52,0,0,0-2,1.61,3.73,3.73,0,0,0-.32,2.45,3.39,3.39,0,0,0,1.38,2l-.18.73a3.27,3.27,0,0,1-1.76-2.07,4.45,4.45,0,0,1,.1-3.18A4.15,4.15,0,0,1,29.09,44s1.37-.45,3.49,1a8.23,8.23,0,0,1,2.29,2.48S36.2,49.8,36,51.4Z"/><path class="cls-4" d="M27.56,51.63a3.49,3.49,0,0,1-2.09-2.51,4.27,4.27,0,0,1,.09-2.91,4.05,4.05,0,0,1,2.51-2.29,4.88,4.88,0,0,1,3.42.17,9.42,9.42,0,0,1,3,2.39,9.93,9.93,0,0,1,1.62,3.08,8.63,8.63,0,0,1,.3,2.36l.22.23A8.49,8.49,0,0,0,35,46.88a7.82,7.82,0,0,0-3.89-3.12,5,5,0,0,0-3.32,0,4.26,4.26,0,0,0-2.7,3.36,4.76,4.76,0,0,0,.71,3.28,3.3,3.3,0,0,0,1.75,1.43Z"/><path class="cls-4" d="M35.58,18.79s0-.35.69-.71a1,1,0,0,0,.42-.37,1.66,1.66,0,0,1-.32,1.39,5.61,5.61,0,0,0-.76,1.07Z"/><path class="cls-4" d="M35.6,18.79s0-.35-.68-.71a1,1,0,0,1-.42-.37,1.66,1.66,0,0,0,.32,1.39,5.15,5.15,0,0,1,.79,1.07Z"/><path class="cls-4" d="M34,20.16h1.25A3.48,3.48,0,0,0,34.27,19,1.19,1.19,0,0,1,34,20.16Z"/><path class="cls-4" d="M37.26,20.16H36A3.52,3.52,0,0,1,37,19,1.22,1.22,0,0,0,37.26,20.16Z"/><path class="cls-5" d="M37.53,20.49H33.66a.51.51,0,0,0-.51.51.5.5,0,0,0,.51.5h3.87A.5.5,0,0,0,38,21,.51.51,0,0,0,37.53,20.49Zm-3.81.74s-.52-.25,0-.54l.73,0s-.26.34.05.52Zm2.41,0H35.06a.28.28,0,0,1-.27-.28.27.27,0,0,1,.27-.27h1.07a.28.28,0,0,1,.28.27A.29.29,0,0,1,36.13,21.24Zm1.33,0h-.81c.31-.18.06-.52.06-.52l.73,0C38,21,37.46,21.23,37.46,21.23Z"/><path class="cls-4" d="M33.61,21.69h1.7a10.76,10.76,0,0,0-.91,1.24,1.73,1.73,0,0,0-.24-.55A6.91,6.91,0,0,1,33.61,21.69Z"/><path class="cls-4" d="M37.47,21.72l-1.7-.06a10.83,10.83,0,0,1,.87,1.28,1.76,1.76,0,0,1,.25-.55A7.59,7.59,0,0,0,37.47,21.72Z"/><path class="cls-4" d="M35,42.6H36s.08.16-.06.2v.37s-.07.13-.14.13H35.2s-.1-.07-.09-.16v-.37A.1.1,0,0,1,35,42.6Z"/><path class="cls-4" d="M35.21,43.4h.56l0,.15s.19.11.08.41c0,0-.32.71-.37.77a5.26,5.26,0,0,1-.42-.95.3.3,0,0,1,.11-.24Z"/><rect class="cls-4" x="35.14" y="40.18" width="0.78" height="0.5"/><path class="cls-4" d="M33.76,38.33a2,2,0,0,0-.2,1.43,2,2,0,0,0,1.16,1.4,2.1,2.1,0,0,0,2.17-.34,2,2,0,0,0,.48-2.41,2,2,0,0,0,.18-1.6,1.18,1.18,0,0,1,.28.8.78.78,0,0,0,.1-.54,1,1,0,0,1,.36.82s0,.34-.56.78c0,0-.11.42.17.28,0,0,.68-.49.66-1,0,0,.48.65.24,1.13a1.92,1.92,0,0,1-.37.55.42.42,0,0,0,.39-.28s.19.83-.86,1a1.08,1.08,0,0,1-.46,0s-.19.2,0,.26a1.21,1.21,0,0,0,1.15-.17,1.82,1.82,0,0,1-.72,1,1.2,1.2,0,0,1-.49,0,.4.4,0,0,0,.42.14A.75.75,0,0,1,37,42a1.71,1.71,0,0,1-.74-.61s-.29-.06-.23.24a1,1,0,0,0,.91.61,1.35,1.35,0,0,1-1.08.29,1.13,1.13,0,0,1-.54-.44.92.92,0,0,0,.15.45s-.43.08-.84-.64a.86.86,0,0,1,0-.54s0-.3-.3-.07c0,0-.25.35.15,1.06,0,0-1.21-.23-1-1.12a.68.68,0,0,0-.18.44A1.1,1.1,0,0,1,33,40.51s.21-.44.42-.48c0,0,0-.29-.16-.24a1.31,1.31,0,0,0-.7,1.08s-.71-1,0-1.72c0,0-.32.07-.41.25,0,0,0-1,.68-1.06,0,0,.41,0,.53.18,0,0,.21-.17,0-.33a.73.73,0,0,0-1,0,1.28,1.28,0,0,1,.9-1,.38.38,0,0,1,.22.42A1,1,0,0,0,33.76,38.33Z"/><path class="cls-4" d="M33.82,38.61a2,2,0,0,0,0,1.19,1.92,1.92,0,0,0,1.33,1.29,2,2,0,0,0,1.75-.57,1.75,1.75,0,0,0,.42-1.82l-.26.22a1.8,1.8,0,0,1-.27,1.21,1.55,1.55,0,0,1-1.19.68,1.66,1.66,0,0,1-1.41-.89,2.08,2.08,0,0,1-.09-1Z"/><path class="cls-4" d="M35.21,40h.65a.28.28,0,0,0,.12-.19v-.25s0-.23.42-.42a2.46,2.46,0,0,0,.71-.49,1,1,0,0,0,.3-.7s.17-.12,0-.17h-.63a.49.49,0,0,1-.43.54s-.45,0-.51-.34v-.48a.13.13,0,0,0,.11,0s.06-.12,0-.17h-.74s-.1,0-.08.09a.11.11,0,0,0,.1.13V38a.49.49,0,0,1-.49.34.47.47,0,0,1-.39-.54h-.69s-.06.12.06.14a1.44,1.44,0,0,0,.68,1l.34.14a.52.52,0,0,1,.39.46v.32A.17.17,0,0,0,35.21,40Z"/><path class="cls-4" d="M33.54,37.13l0-.52a2.79,2.79,0,0,0-.48.46S33.44,37.05,33.54,37.13Z"/><path class="cls-4" d="M35.06,37.05a2.7,2.7,0,0,0-.72-.7,1.33,1.33,0,0,1,.64-.22A1.92,1.92,0,0,1,35.06,37.05Z"/><path class="cls-4" d="M36.71,37.67a1.42,1.42,0,0,0-.65-.48L36,36S36.79,36.35,36.71,37.67Z"/><path class="cls-4" d="M36.81,36.63s.18-.3-.22-.42Z"/><path class="cls-4" d="M34.4,37.55a1.35,1.35,0,0,1,.64-.28,3.87,3.87,0,0,0-.68-.48Z"/><path class="cls-4" d="M34.54,38.11a2.14,2.14,0,0,1,.56-.34.3.3,0,0,0-.06-.26s-.46.17-.57.36C34.47,37.87,34.42,38.07,34.54,38.11Z"/><path class="cls-4" d="M36.12,37.52a1.44,1.44,0,0,1,.5.38.15.15,0,0,1-.15.24,1.65,1.65,0,0,0-.39-.33S36,37.61,36.12,37.52Z"/><path class="cls-4" d="M35.18,37.09h.72s.1-.06,0-.18v-.46s.15-.16,0-.26h-.7s-.14.16,0,.25v.45S35.12,37,35.18,37.09Z"/><path class="cls-4" d="M33.66,37.61h.62v-.52h-.65s-.06.12.09.13v.26S33.61,37.56,33.66,37.61Z"/><path class="cls-4" d="M37.47,37.61h-.62v-.52h.65s.06.12-.09.13v.26S37.52,37.56,37.47,37.61Z"/><path class="cls-4" d="M36.94,36.9h.52s0-.82.14-1.74a2.57,2.57,0,0,0-.08-1.25,5.54,5.54,0,0,1-.26-.88,3.56,3.56,0,0,1-.25.76,2.65,2.65,0,0,0-.15,1.36S36.94,36.63,36.94,36.9Z"/><path class="cls-4" d="M34.27,36.9h-.51s-.06-.82-.15-1.74a2.62,2.62,0,0,1,.09-1.25A4.81,4.81,0,0,0,34,33a3.85,3.85,0,0,0,.26.76,2.71,2.71,0,0,1,.14,1.36S34.27,36.63,34.27,36.9Z"/><path class="cls-4" d="M35.24,36h.65s.19-2.15.21-2.45a5.16,5.16,0,0,0,0-1.4s-.35-1-.55-1.53c0,0-.33.95-.5,1.54a2.58,2.58,0,0,0,0,1.38S35.29,35.76,35.24,36Z"/><path class="cls-4" d="M34.51,34.75a2.48,2.48,0,0,0,.62.11v.4a1.88,1.88,0,0,1-.66-.07Z"/><path class="cls-4" d="M36.05,34.88l0,.38a2.62,2.62,0,0,0,.77-.07,1.6,1.6,0,0,1,0-.44A1.51,1.51,0,0,1,36.05,34.88Z"/><path class="cls-4" d="M37.73,34.48a2.67,2.67,0,0,1,0,.48,6.2,6.2,0,0,0,1.65-.9L39,33.78A3.48,3.48,0,0,1,37.73,34.48Z"/><path class="cls-4" d="M32.11,33.87a7.16,7.16,0,0,0,1.33.58l0,.43a4.28,4.28,0,0,1-1.64-.78Z"/><path class="cls-4" d="M33.05,23.73s2.83-.15,5.05,0c0,0-.79-1-.58-1.47a7,7,0,0,0-.92,1.34,6.7,6.7,0,0,1-1-1.66,7.13,7.13,0,0,1-1,1.64,5,5,0,0,0-1-1.23A1.74,1.74,0,0,1,33.05,23.73Z"/><path class="cls-4" d="M38.93,24.54a.8.8,0,0,0-.7-.56c-2-.15-5.5,0-5.5,0a.78.78,0,0,0-.56.64c.12.45.78.55.78.55,2-.16,5.39,0,5.39,0C39,25,38.93,24.54,38.93,24.54Zm-6.09.3s-.27-.1-.27-.32a.41.41,0,0,1,.31-.3s.32,0,1.06,0c0,0-.39.31.06.66Zm3.82,0H34.43c-.68-.34,0-.65,0-.65l2.23,0C37.39,24.49,36.66,24.82,36.66,24.82Zm1.66,0H37.16c.45-.35.06-.66.06-.66.74,0,1.06,0,1.06,0a.41.41,0,0,1,.31.3C38.59,24.74,38.32,24.84,38.32,24.84Z"/><path class="cls-4" d="M39.29,26.65s-4.59-.71-7.3,0a3.89,3.89,0,0,0,.77-1.5,3.93,3.93,0,0,1,.9,1.17,9.48,9.48,0,0,0,1-1.18s.73.92,1,1.15a5.38,5.38,0,0,0,1.06-1.16s.81,1,1,1.24a4.78,4.78,0,0,1,.77-1.15A4.28,4.28,0,0,0,39.29,26.65Z"/><path class="cls-4" d="M30.61,28.33s3.84-1.11,10.36,0a4,4,0,0,1-1.06-1.66A3.49,3.49,0,0,0,39.18,28a10.68,10.68,0,0,1-.71-1.37s-.88,1.18-.93,1.22-.91-1.2-1-1.43a8.92,8.92,0,0,1-1,1.36,11.79,11.79,0,0,1-.93-1.36s-.59,1.09-.73,1.37a12.85,12.85,0,0,0-1-1.26,8.32,8.32,0,0,1-.64,1.42,5.56,5.56,0,0,0-.9-1.32A2.94,2.94,0,0,1,30.61,28.33Z"/><path class="cls-4" d="M28.94,30.26s5.54-2.46,13.33,0c0,0-.88-1.33-.81-1.86a6.58,6.58,0,0,0-.78,1.34s-.62-1.21-.7-1.49c0,0-.59.89-.82,1.15A8.69,8.69,0,0,1,38.45,28s-.85,1-.91,1.17l-.93-1.32s-.74.86-1.08,1.22a9.44,9.44,0,0,0-.83-1.23s-.61,1.05-.75,1.24A12.79,12.79,0,0,0,33,28s-.56,1-.78,1.31c0,0-.82-1-.95-1.06s-.49,1.14-.66,1.4a3.7,3.7,0,0,0-.86-1.27A3.31,3.31,0,0,1,28.94,30.26Z"/><path class="cls-4" d="M29,30.57s5.23-2.62,13.16,0c0,0,.56,1.05-2.43,3.26l-.44-.24a7.79,7.79,0,0,0,1.46-1.15A16.92,16.92,0,0,0,36,31.62l-.07-.22s.75,0,1-.52a1.44,1.44,0,0,0,1.14.8,1.54,1.54,0,0,0,1.35-.62,1.34,1.34,0,0,0,.83,1,.9.9,0,0,0,1.13-.4.73.73,0,0,0-.33-.9,1.55,1.55,0,0,0-1.64.21,1.27,1.27,0,0,0-1.2-.91,1.51,1.51,0,0,0-1.26.67,1,1,0,0,0-.55-.64,2.13,2.13,0,0,0-1.58,0,1.08,1.08,0,0,0-.49.52,1.14,1.14,0,0,0-.77-.5,1.86,1.86,0,0,0-1.4.34,2.12,2.12,0,0,0-.43.56,2.08,2.08,0,0,0-.66-.49,1.63,1.63,0,0,0-1.42.34.69.69,0,0,0,.2,1.1,1.79,1.79,0,0,0,1.45-.25s.41-.24.44-.58c0,0,.18.38,1,.37a2,2,0,0,0,1.3-.37,2.71,2.71,0,0,0,.33-.34,1.7,1.7,0,0,0,.85.62l-.07.16a13.78,13.78,0,0,0-5,.8,9.22,9.22,0,0,0,1.63,1.26l-.48.27S28.51,32.12,29,30.57Z"/><path class="cls-4" d="M35,33.39s-.51,0-.75,0l-.14-.37a3,3,0,0,1,.85-.06Z"/><path class="cls-4" d="M36.28,33.05l-.05.36a3.93,3.93,0,0,1,.76,0l.15-.39A4,4,0,0,0,36.28,33.05Z"/></g></svg>